<?xml version="1.0" standalone="no"?>
<!DOCTYPE svg PUBLIC "-//W3C//DTD SVG 1.1//EN" "http://www.w3.org/Graphics/SVG/1.1/DTD/svg11.dtd" >
<svg xmlns="http://www.w3.org/2000/svg">
<metadata>
Created by FontForge 20120731 at Thu Dec 10 15:05:59 2015
 By Ads
</metadata>
<defs>
<font id="iconfont" horiz-adv-x="1024" >
  <font-face 
    font-family="iconfont"
    font-weight="500"
    font-stretch="normal"
    units-per-em="1024"
    panose-1="2 0 6 3 0 0 0 0 0 0"
    ascent="896"
    descent="-128"
    x-height="792"
    bbox="-656 -224 1336 812.028"
    underline-thickness="50"
    underline-position="-100"
    unicode-range="U+0078-E653"
  />
<missing-glyph horiz-adv-x="374" 
d="M34 0v682h272v-682h-272zM68 34h204v614h-204v-614z" />
    <glyph glyph-name=".notdef" horiz-adv-x="374" 
d="M34 0v682h272v-682h-272zM68 34h204v614h-204v-614z" />
    <glyph glyph-name=".null" horiz-adv-x="0" 
 />
    <glyph glyph-name="nonmarkingreturn" horiz-adv-x="341" 
 />
    <glyph glyph-name="x" unicode="x" horiz-adv-x="1001" 
d="M281 543q-27 -1 -53 -1h-83q-18 0 -36.5 -6t-32.5 -18.5t-23 -32t-9 -45.5v-76h912v41q0 16 -0.5 30t-0.5 18q0 13 -5 29t-17 29.5t-31.5 22.5t-49.5 9h-133v-97h-438v97zM955 310v-52q0 -23 0.5 -52t0.5 -58t-10.5 -47.5t-26 -30t-33 -16t-31.5 -4.5q-14 -1 -29.5 -0.5
t-29.5 0.5h-32l-45 128h-439l-44 -128h-29h-34q-20 0 -45 1q-25 0 -41 9.5t-25.5 23t-13.5 29.5t-4 30v167h911zM163 247q-12 0 -21 -8.5t-9 -21.5t9 -21.5t21 -8.5q13 0 22 8.5t9 21.5t-9 21.5t-22 8.5zM316 123q-8 -26 -14 -48q-5 -19 -10.5 -37t-7.5 -25t-3 -15t1 -14.5
t9.5 -10.5t21.5 -4h37h67h81h80h64h36q23 0 34 12t2 38q-5 13 -9.5 30.5t-9.5 34.5q-5 19 -11 39h-368zM336 498v228q0 11 2.5 23t10 21.5t20.5 15.5t34 6h188q31 0 51.5 -14.5t20.5 -52.5v-227h-327z" />
    <glyph glyph-name="uniE600" unicode="&#xe600;" 
d="M805 143q-73 0 -117 -58l-307 183q6 22 6 42q0 4 -1 13l307 185q11 -12 23 -21.5t26 -16t30 -10t33 -3.5q60 0 103 42.5t43 103.5t-43 103.5t-103.5 42.5t-103.5 -42.5t-43 -103.5q0 -23 8 -46l-305 -158q-9 14 -20.5 26.5t-25 22t-29 16t-32.5 10.5t-34 4
q-70 0 -119 -49t-49 -118.5t49 -118.5t119 -49q74 0 124 56l319 -165q-1 -5 -2 -9.5t-1 -8.5l-2 -10v-9q0 -61 43 -103.5t103.5 -42.5t103.5 42.5t43 103.5q0 30 -11.5 57t-31 46.5t-47 31t-56.5 11.5z" />
    <glyph glyph-name="uniE601" unicode="&#xe601;" 
d="M945 621q-10 -1 -17 -1q-416 -1 -831 0q-7 0 -17 1q-16 -6 -16 -23v-2q4 -3 12 -8t14 -9t11 -9q118 -107 338 -308q40 -37 73 -37t74 37q247 227 335 306q1 1 39 28v2q0 17 -15 23zM696 259q-22 20 -42 -1q-8 -8 -47 -43q-46 -40 -95 -40t-95 41q-8 6 -64 57
q-169 -139 -188 -154q-6 -6 -101 -81v-35q0 -10 7 -17t17 -7h848q10 0 17 7t7 17v42q-149 118 -165 131q-59 48 -99 83zM64 536v-438q106 88 252 210q-132 120 -252 228zM960 105v431q-102 -93 -249 -226q174 -144 249 -205z" />
    <glyph glyph-name="uniE602" unicode="&#xe602;" 
d="M857 -110q43 24 69 43q1 0 4 2.5t6 4.5t4 3q18 15 18 38q0 22 -17 36l-198 164q-14 10 -31 10q-19 0 -33 -13l-5 -5l-8 -9l-10 -8q-4 -5 -7 -9l-4 -3q-7 -7 -17 -11t-20 -4t-20 4t-17 11l-203 203q-6 6 -10 14t-5 16t0 16t5 15.5t10 13.5l33 33q3 4 5.5 7.5t4.5 8t2.5 9
t0.5 9.5q0 7 -1.5 13t-4.5 11t-7 9l-170 206q-15 18 -38 18q-11 0 -21 -5.5t-17 -14.5l-3 -4q-86 -115 -86 -204q0 -37 20.5 -87t54.5 -103.5t81 -110t99 -108.5t108.5 -99t109.5 -81t103 -54.5t87 -20.5h3q3 0 5 0.5t3 0.5q36 2 65.5 12t51.5 23z" />
    <glyph glyph-name="uniE603" unicode="&#xe603;" 
d="M64 682h121v-121h-121v121zM310 682h650v-121h-650v121zM64 350h121v-121h-121v121zM310 350h650v-121h-650v121zM64 39h121v-121h-121v121zM310 39h650v-121h-650v121zM310 39z" />
    <glyph glyph-name="uniE604" unicode="&#xe604;" 
d="M511.5 662q-121.5 0 -224.5 -50t-163 -135.5t-60 -185.5q0 -83 41.5 -156t114.5 -125q-25 -37 -64 -65t-65 -38l-27 -9q39 -28 85 -38.5t85 -6.5t81 18t68 27t50 28q39 -6 79 -6q121 0 224 49.5t163 135t60 186t-60 186t-163 135.5t-224.5 50zM512 -37q-54 0 -106 12
q-93 -85 -223 -78q-26 1 -26 2q89 50 117 116l3 9v1q-78 45 -123.5 114.5t-45.5 151.5q0 89 54 164t147 119t202.5 44t202.5 -44t147 -119t54 -164q0 -54 -20.5 -103.5t-57.5 -90t-87 -70.5t-111.5 -47t-126.5 -17zM370 334h261q6 0 11 3t8 8t3 11q0 5 -1.5 9t-4.5 7t-7 4.5
t-9 1.5h-261q-6 0 -11 -3t-8 -8t-3 -11t3 -11t8 -8t11 -3zM762 225h-480q-9 0 -15 -6.5t-6 -15.5t6 -15t15 -6h480q9 0 15.5 6t6.5 15t-6.5 15.5t-15.5 6.5z" />
    <glyph glyph-name="uniE605" unicode="&#xe605;" 
d="M578 422q13 0 25.5 3.5t23 9.5t19.5 15t15 19.5t9.5 22.5t3.5 25q0 40 -28 68t-68 28q-26 0 -48 -12.5t-35 -34.5t-13 -49q0 -19 8 -37t20.5 -30.5t30.5 -20t37 -7.5zM578.5 549q13.5 0 22.5 -9t9 -22.5t-9 -22.5t-22.5 -9t-23 9t-9.5 22.5t9.5 22.5t23 9zM956 590
q0 6 -2.5 12t-7 10.5t-10 7t-12.5 2.5h-64q-13 0 -22.5 -9.5t-9.5 -22.5t9.5 -22.5t22.5 -9.5h32v-240l-150 58l16 23v2l1 1h1q17 27 26.5 58t9.5 65q0 92 -65.5 157.5t-158 65.5t-158 -65.5t-65.5 -157.5q0 -56 28 -107l-121 59v81h32q3 0 5.5 0.5t5.5 1.5t5 2l4 4q2 1 4 3
t3.5 4.5t2.5 5t1.5 5.5t0.5 6q0 13 -9.5 22.5t-22.5 9.5h-32v30q0 26 -13 48.5t-35 35t-48 12.5t-48 -12.5t-35 -35t-13 -48.5v-703q0 -26 13 -48t35 -34.5t48 -12.5q40 0 68 28t28 67v32h668q13 0 22.5 9.5t9.5 22.5v575v1v0v1zM892 250v-205h-462l107 148l11 -16l2 -3
l4 -2q1 -2 2.5 -3t2.5 -1l1 -1l1 -1q7 -5 15.5 -5.5t16.5 4t13 11.5l99 146zM573 684q66 0 112.5 -46.5t46.5 -112.5q0 -45 -23 -83l-4 -7l-128 -189l-132 180l-9 16q-23 38 -23 83q0 66 47 112.5t113 46.5zM160 684q13 0 22.5 -9t9.5 -23v-613q-16 6 -31.5 6t-32.5 -6v613
q0 7 2.5 13t7 10t10.5 6.5t12 2.5zM160 -82q-9 0 -16 4t-11.5 11.5t-4.5 16t4.5 16t11.5 11.5t16 4q13 0 22.5 -9t9.5 -22.5t-9.5 -22.5t-22.5 -9zM256 406l194 -94l47 -65l-146 -202h-95v361z" />
    <glyph glyph-name="uniE606" unicode="&#xe606;" 
d="M238 337q11 0 21 4t17.5 11.5t12 17.5t4.5 21q0 23 -16.5 39t-39 16t-38.5 -16t-16 -38.5t16 -38.5t39 -16zM421 337q11 0 21 4t17.5 11.5t11.5 17.5t4 21q0 23 -16 39t-38 16q-15 0 -28 -7t-20 -20t-7 -28q0 -22 16 -38t39 -16zM603 337q12 0 22 4t17.5 11.5t11.5 17.5
t4 21q0 23 -16 39t-39 16q-14 0 -27 -7t-20 -20t-7 -28q0 -22 16 -38t38 -16zM841 117v549q0 16 -9 25t-18 10l-9 1h-768h-5q-2 0 -8 -2t-11 -5.5t-9 -11t-4 -17.5v-549q0 -10 4 -17.5t9 -11t11 -5.5t8 -2h5h109v-183l183 183h476q10 0 17.5 3.5t11 9t5.5 11t2 8.5v4z
M768 154h-469l-22 -22l-58 -58v7v73h-146v475h695v-475zM987 593h-109v-74h73v-475h-146v-79l-80 79h-359v-73h329l183 -183v183h109h5q2 0 8 2t11 5.5t9 11t4 17.5v549q0 16 -9 25.5t-18 10.5z" />
    <glyph glyph-name="uniE607" unicode="&#xe607;" 
d="M511 808q-103 0 -197 -40.5t-162 -108.5t-108 -162t-40 -197t40 -197t108 -162t162 -108t197.5 -40t197.5 40t162 108t108 162t40 197q0 42 -6.5 82.5t-19 78t-31 73t-41.5 66.5t-51 59t-59 51t-66.5 41t-73 31t-78 19.5t-82.5 6.5zM511 -116q-113 0 -209 55.5
t-151.5 151.5t-55.5 209t55.5 209t151.5 152t209 56q85 0 162 -33t133 -89t89 -133t33 -162q0 -161 -109 -280q-105 -116 -260 -134q-24 -2 -48 -2zM690 544h-357q-13 0 -23.5 -6.5t-16.5 -17t-6 -22.5q0 -19 13.5 -32t32.5 -13h357q19 0 32.5 13t13.5 32t-13.5 32.5
t-32.5 13.5zM690 353h-357q-19 0 -32.5 -13t-13.5 -32t13.5 -32t32.5 -13h357q19 0 32.5 13t13.5 32q0 12 -6.5 22.5t-16.5 16.5t-23 6zM690 148h-357q-19 0 -32.5 -13.5t-13.5 -32.5q0 -12 6 -22.5t16.5 -16.5t23.5 -6h357q19 0 32.5 13.5t13.5 31.5q0 13 -6.5 23.5
t-16.5 16.5t-23 6z" />
    <glyph glyph-name="uniE608" unicode="&#xe608;" 
d="M880 -146q-11 0 -21 2.5t-19 7.5t-16 12.5t-12 16t-8 19t-3 20.5q0 134 -52 255t-140 209t-209.5 140t-254.5 52q-16 0 -30.5 6.5t-25 17t-17 25t-6.5 30.5q0 33 23 56t56 23q165 0 315.5 -64.5t259.5 -173.5t173.5 -260t64.5 -316q0 -32 -23 -55t-55 -23zM581 -146
q-16 0 -30.5 6t-25 16.5t-17 25t-6.5 30.5q0 97 -47.5 179.5t-130 130.5t-179.5 48q-33 0 -56 23t-23 55.5t23 55.5t56 23q105 0 200 -41t164 -109.5t110 -164t41 -200.5q0 -16 -6.5 -30.5t-17 -25t-25 -16.5t-30.5 -6zM351 -2q0 -58 -41 -99t-99 -41t-99.5 41t-41.5 99
t41.5 99.5t99.5 41.5t99 -41.5t41 -99.5z" />
    <glyph glyph-name="uniE609" unicode="&#xe609;" 
d="M587 430q7 9 13 19t11 21t9 23q12 37 12 78q16 -6 26.5 -11.5t15.5 -11.5q11 -11 11 -30q0 -35 -17 -67q-8 -16 -16.5 -24.5t-17.5 -8.5q-6 0 -18 3q-10 3 -29 9zM255 62q-50 64 -72 120t-22 120q0 34 6.5 67.5t20.5 65.5q26 65 76 114q49 50 113 76q65 27 134 27
q71 0 134 -26q32 -14 60 -33t53 -44q50 -49 77 -113.5t27 -133.5t-27 -134q-7 -16 -15 -31t-17.5 -29.5t-20.5 -27.5t-24 -25q-24 -25 -52.5 -44t-60.5 -33q-65 -27 -134 -27q-84 0 -135 27q-25 14 -37.5 32t-12.5 39q0 10 3 19l5 9q2 5 6 10q8 -7 14 -11q6 -3 11 -3
q4 0 10 3.5t14 9.5q16 14 32 34q4 6 8 12.5t7.5 13.5t6.5 14q9 22 9 28q0 4 -11 17q-5 7 -8 13.5t-3 12.5q0 18 10 47q11 30 30 69q11 23 20 38.5t16 24.5t14 15t15 9q3 1 11 2q25 2 38 22q11 19 20 49q8 31 8 52q0 17 -5 23q-3 3 -8.5 4.5t-14.5 1.5q-13 0 -24.5 -1t-21 -3
t-16.5 -4.5t-12 -6.5q-6 -4 -16 -15t-23 -27.5t-26.5 -35.5t-27.5 -41q-25 -39 -45.5 -81t-36.5 -86q-33 -89 -33 -134q0 -2 0.5 -3.5t0.5 -3.5t0.5 -4t1.5 -3.5t1 -3.5q4 -10 14 -26q-13 -16 -19.5 -32.5t-6.5 -33.5q0 -55 59.5 -90.5t157.5 -35.5q75 0 146.5 29.5
t125.5 83.5t83 125q30 71 30 147t-29 146q-30 70 -84 125t-125 84q-23 9 -47 15.5t-49 10t-51 3.5q-77 0 -147 -30q-8 -3 -16.5 -7t-17 -8.5t-16.5 -9.5l-16 -10q-8 -5 -15.5 -11t-14.5 -12l-14 -12q-7 -6 -14 -13q-54 -54 -83 -125q-15 -35 -22.5 -71.5t-7.5 -74.5
q0 -67 21 -124q20 -57 59 -101q9 -9 16 -14q4 -3 8 -4t7 -1l7 1q2 1 8 2zM384 61q17 11 30.5 24.5t23.5 28.5q22 31 31 67q23 -15 30.5 -24t7.5 -19q0 -27 -26 -62q-27 -36 -51 -36q-7 0 -19 6q-11 5 -27 15z" />
    <glyph glyph-name="uniE60A" unicode="&#xe60a;" 
d="M271 676q27 0 51.5 -10.5t43.5 -29.5q12 -12 21 -27.5t13.5 -32.5t4.5 -35v-134h-134q-56 0 -95.5 39.5t-39.5 95t40 94.5q19 19 43.5 29.5t51.5 10.5zM271 747q-86 0 -146 -60t-60 -145.5t60 -146t146 -60.5h159q19 0 33 14t14 33v159q0 86 -60.5 146t-145.5 60z
M271 195h134v-134q0 -56 -39.5 -95t-95 -39t-95 39t-39.5 95t39.5 95t95.5 39zM271 267q-86 0 -146 -60.5t-60 -145.5t60 -145.5t145.5 -60.5t146 60.5t60.5 145.5v160q0 19 -14 32.5t-33 13.5h-159zM751 676q27 0 51.5 -10.5t43.5 -29.5q39 -39 39 -94.5t-39 -95t-95 -39.5
h-134v134q0 56 39 95.5t95 39.5zM751 747q-56 0 -103.5 -27.5t-75 -75t-27.5 -103.5v-159q0 -19 13.5 -33t32.5 -14h160q56 0 103.5 27.5t75 75t27.5 103.5q0 42 -16.5 80.5t-44 66t-65.5 43.5t-80 16zM751 195q56 0 95 -39t39 -95t-39 -95q-13 -13 -28 -21.5t-32 -13
t-35 -4.5q-56 0 -95 39t-39 95v134h134zM751 267h-160q-12 0 -23 -6t-17 -17t-6 -23v-160q0 -85 60.5 -145.5t145.5 -60.5t145.5 60.5t60.5 145.5t-60.5 145.5t-145.5 60.5z" />
    <glyph glyph-name="uniE60B" unicode="&#xe60b;" horiz-adv-x="1025" 
d="M960 -28q6 -24 -3 -46t-27.5 -39t-45 -27t-57.5 -10q-193 -1 -346 -1h-348q-37 0 -65 13.5t-45 33t-22.5 42.5t1.5 41l12 30q6 13 13 30t15 35l39 94h117l-44 -129h659l-44 129h112q21 -52 39 -94q7 -19 14 -36.5t12.5 -31t9.5 -23.5t4 -11zM444 162q-19 22 -44 56
t-51.5 70t-53 70.5t-46.5 60.5q-24 27 -18.5 45t34.5 18q17 -1 44.5 0.5t45.5 1.5q21 0 26 12.5t5 32.5q0 23 -0.5 50t-0.5 56t-0.5 56.5t-0.5 50.5q0 11 1.5 22t7 20.5t16.5 15.5t29 6q22 0 40 0.5t41 0.5q34 0 46 -16t13 -51v-40q0 -23 0.5 -49.5t0.5 -53.5v-48
q0 -30 6 -48t27 -17q16 0 38 -1t38 -1q28 0 35.5 -14.5t-10.5 -38.5q-20 -25 -45.5 -59.5t-52.5 -72t-53 -73t-47 -60.5q-18 -24 -35 -24.5t-36 22.5z" />
    <glyph glyph-name="uniE60C" unicode="&#xe60c;" 
d="M454 -61q-23 31 -37 50q-28 -12 -44.5 -10.5t-24 15t-10.5 46.5q-20 -5 -31.5 -6t-23 3.5t-18 20t-9.5 42.5q-2 -1 -7 -2.5t-8 -2.5t-7 -1.5t-7 0.5q-8 2 -12.5 3.5t-11.5 4t-11.5 6t-7.5 7.5q-6 9 -6 25t6 22q20 20 24.5 39.5t-3.5 36.5t-27 36q-3 3 -4 8t-1 10v12v12
q3 1 11 3q42 -52 47 -57q17 -17 35 -19q44 -3 45 -46q0 -14 6.5 -20t22.5 -10q11 -3 22 -12.5t16 -20.5q6 -15 14.5 -22t23.5 -10q4 -1 7 -3t6 -3.5t6.5 -4.5t5.5 -5.5t5.5 -6t5.5 -4.5q5 -5 10 -11l10 -12q5 -6 10 -11q14 -13 38 -28q1 0 4.5 -2.5t4.5 -3.5t4 -3l5 -2
q2 -1 4.5 -2t5 -1.5t4.5 -0.5q3 0 7 1t7.5 3t6.5 5l5 5q2 4 -1.5 12t-8.5 12q-10 9 -32 25.5t-32 25.5q-3 2 -4.5 6t-2.5 9t-2 8h8h10q4 0 6 -2q42 -28 113 -78q33 -24 51 0q19 28 -14 51q-79 57 -116 85q-4 3 -6 7.5t-4.5 11t-3.5 9.5q3 0 9.5 -0.5t11 -1.5t8.5 -3
q22 -16 132 -93q2 -1 5 -3.5t5.5 -4t4.5 -3.5q29 -18 46 4q19 26 -10 47q-12 9 -155 113q-16 12 -17 13l-2 6q-1 3 -1.5 7t-1.5 6q2 1 6 2l6 1q2 1 5 0q9 -2 24 -13q107 -76 156 -111q36 -27 60 0q8 9 9.5 19t-3.5 20.5t-16 20.5q-160 141 -260 227q-26 22 -56.5 12.5
t-40.5 -43.5q-9 -32 -28 -53t-50 -28q-19 -5 -49 6q-5 3 -9.5 12t-3.5 15q2 15 5.5 32.5t6.5 30.5t8 31q2 9 5 17.5t7.5 21t6.5 20.5h-87q1 11 4.5 19t9 13t13 6.5t18.5 0.5q16 -1 30 -1t31 2q63 8 90 17q69 24 150 3q16 -4 50 -11t51 -11q17 -5 24 -18q46 -91 117 -241
q3 -6 4 -12t-1 -10q-8 -13 -9.5 -26.5t1.5 -24t9 -26.5q9 -24 -3.5 -47.5t-38.5 -31.5q-9 -3 -15 -7t-9.5 -9.5t-5.5 -14.5q-11 -43 -73 -47q-15 -40 -35 -50t-61 2q-4 2 -25 -7q-6 -2 -17.5 -9t-20.5 -10.5t-15 -1.5q-24 7 -39 -1t-32 -28h-24zM185 659q6 -3 18.5 -10
t22 -12t18.5 -9q24 -13 13 -37q-33 -67 -137 -285q-13 -27 -40 -13q-5 3 -66 37v18q8 16 25.5 49.5t31 59t25.5 49.5q5 11 77 153h12zM851 659q3 -4 7.5 -11.5t8 -12.5t7.5 -11.5t7 -12.5q9 -19 20.5 -41.5t20.5 -41.5t20 -41t21 -41.5t21 -41.5t20 -41q10 -20 6 -31.5
t-24 -20.5q-16 -7 -21.5 -10t-16 -6t-13 -3.5t-9.5 1.5t-8.5 4.5t-7.5 11t-9 15t-10 21.5q-12 24 -36.5 74.5t-43.5 89t-37 74.5q-9 16 -5.5 28t21.5 20q3 2 49 28h12z" />
    <glyph glyph-name="uniE60D" unicode="&#xe60d;" 
d="M795 677h-566q-39 0 -66.5 -27.5t-27.5 -66.5v-566q0 -39 27.5 -66.5t66.5 -27.5h566q39 0 66.5 27.5t27.5 66.5v566q0 25 -12.5 47t-34.5 34.5t-47 12.5zM842 17q0 -8 -2.5 -15t-7 -12.5t-10 -10t-12.5 -7t-15 -2.5h-566q-19 0 -33 14t-14 33v566q0 13 6.5 23.5t17 17
t23.5 6.5h566q19 0 33 -14t14 -33v-566zM614 201l88 70l56 -38q6 -4 13 -4q4 0 7.5 1.5t7 3.5t5.5 6q5 8 3.5 17.5t-10.5 14.5l-70 48q-14 9 -28 -2l-112 -89l-166 114h-1q-1 1 -2.5 1.5t-3.5 1.5h-1l-1 1h-6h-2h-1q-1 0 -2 -1h-1l-6 -3l-141 -94q-8 -5 -10 -15t3 -18
q7 -10 20 -10q7 0 13 4l128 85l364 -250q3 -2 6.5 -3t6.5 -1q13 0 20 10q3 5 3.5 11.5t-2 12t-7.5 9.5zM571 371q12 0 24 2.5t22.5 8t19.5 12.5t16.5 16.5t12.5 20t8 22t3 24.5q0 44 -31 75t-75 31t-75 -31t-31 -75q0 -29 14 -53.5t38.5 -38.5t53.5 -14zM571 536
q8 0 15.5 -2.5t14 -6t12 -9t9.5 -12t6 -14t2 -15.5q0 -6 -1 -11t-3 -9.5t-4.5 -9t-5.5 -8.5t-7 -7t-8.5 -6t-9 -4.5t-10 -2.5t-10.5 -1q-24 0 -41.5 17t-17.5 41.5t17 42t42 17.5z" />
    <glyph glyph-name="uniE60E" unicode="&#xe60e;" 
d="M919 -37q-1 8 -2.5 16t-4.5 16q-13 56 -42 105.5t-69 88.5t-90.5 66.5t-106.5 39.5q-2 0 -4 -1q2 1 4 1q72 28 117 92.5t45 144.5q0 105 -74 179.5t-179 74.5t-179.5 -74.5t-74.5 -179.5q0 -81 46.5 -146t119.5 -92q3 -1 5 -2q-2 1 -5 2h-1q-2 1 -4 1
q-75 -16 -138.5 -58.5t-107.5 -105t-62 -136.5q-5 -16 -7 -32v-11q0 -57 40 -97.5t97 -40.5h269h2h269q57 0 97 40.5t40 97.5v11zM435 291l-2 1v-1h2zM462 284zM457 285h-1h1zM451 286h-1h1zM446 287l-1 1h1v-1zM441 289h-1l-1 1v-1h2zM513 -164v1h-1l-1 -1l-118 109l89 210
q-13 13 -24.5 32.5t-17.5 33.5l-5 13v3q37 31 76 30h1v0h1q39 1 76 -30v-3q-19 -50 -47 -79l89 -210zM-656 274h11h-11z" />
    <glyph glyph-name="uniE60F" unicode="&#xe60f;" 
d="M63 -119h-39q-9 0 -14.5 6t-5.5 14v39q-4 58 38 111q26 33 65 55q45 25 105 35l1 1q60 8 95 23v7q0 4 -1 9q-2 23 -11.5 44.5t-18 33t-25.5 29.5q-3 4 -5.5 7t-5.5 6t-5 6t-4.5 6t-4.5 6q-32 47 -35 102v1q0 27 14 47q-9 65 1 125q1 26 14 51.5t22.5 36t18.5 19.5
q-2 11 1 22q9 51 76 55h4h5h3q8 1 14 -4.5t6 -13.5q1 -4 -0.5 -8t-4 -6.5t-6 -4.5t-7.5 -2h-3q-5 -1 -9 -1q-36 -2 -40 -22v-8q0 -4 1 -8q4 -12 -4 -20q-2 -2 -4.5 -4t-4.5 -4q-5 -5 -12 -12.5t-18.5 -28t-12.5 -40.5v-2q-10 -61 1 -123q1 -4 -0.5 -8.5t-4.5 -8.5
q-10 -10 -10 -27q0 -6 1.5 -15t8.5 -29.5t18 -36.5q6 -8 22 -26q11 -13 16.5 -20t15.5 -21t15.5 -25.5t10.5 -28.5t7 -35q0 -9 0.5 -16t0.5 -11v-6q-1 -8 -8 -14q-12 -10 -48 -20t-74 -16q-99 -17 -145 -75q-33 -42 -30 -85v-2v-19h20q4 0 7.5 -1.5t6.5 -4.5t4.5 -6.5
t1.5 -7.5q0 -8 -6 -14t-14 -6zM773 -176q-6 0 -11 3q-36 24 -96 26h-22l-36 -1h-462q-19 0 -19 20v22q-2 39 21 79q21 36 59 60q46 30 114 42q1 0 1.5 0.5t3.5 1t10.5 1.5t15.5 2.5t19 4t21 4.5q27 7 44 15t20 11t3 5q1 1 1.5 2t0.5 2q0 2 0.5 5.5t0 12.5t-1.5 21
q-2 32 -15 61.5t-24 44t-31 36.5q-6 7 -9.5 10.5t-7.5 9t-8 10.5q-29 42 -31 91v1q0 9 3 16t6 10.5t9 8.5v1v3q0 1 -1 3v3q-13 69 -1 138q1 22 14 46t20.5 32t13.5 14q12 10 17 17v1h1q-1 1 -1 2q-2 3 -3 5l-1 6q-1 4 -1 7t1 8q3 18 24 24q3 1 5 1t4 0.5t4.5 0.5t4 0.5
t3.5 0.5h1q45 2 71 0q49 -4 91.5 -13.5t67 -19.5t44.5 -22.5t25.5 -17.5t8.5 -9h1q21 -25 31 -62q3 -11 4 -20q4 -24 4.5 -52.5t-1.5 -44.5q-1 -20 -4 -45q-1 -4 0 -5l2 -3q10 -10 13 -19q2 -7 2 -15v-1q-3 -49 -32 -91q-3 -5 -7.5 -10.5t-7.5 -8.5l-9 -11
q-15 -17 -23 -27.5t-20 -29t-19 -39.5t-9 -46q-1 -12 -1 -21v-12q0 -4 1 -6l1 -4q1 -2 4 -5t20 -11t44 -15q39 -10 69 -14h1q70 -13 116 -43q38 -25 59 -60q22 -39 20 -78v-22q0 -8 -6 -14t-14 -6h-126l-3 1h-29q-19 0 -19 19q0 8 5.5 14t13.5 6h52h2h1h83v3v1v1
q2 27 -16 57q-8 14 -19.5 25.5t-26.5 20.5q-8 5 -16.5 9.5t-18 8.5t-20 7.5t-21.5 6t-23 4.5q-6 1 -14 2.5t-26.5 5t-34.5 7.5q-82 22 -94 55q-7 14 -3 61q2 29 10 54t22 46.5t23 33.5t25 30.5t22 25.5q21 31 24 70v3q0 1 -3 4l-5 5q-12 14 -8 36q3 23 4 41q3 53 -3 88v1
q-1 7 -4 16q-7 28 -22 46q-2 2 -6 5.5t-15 10.5t-25 14q-66 31 -165 39q-21 1 -33.5 0.5t-32.5 -1.5h-1h-6q5 -13 2 -25q-2 -5 -6 -12q-8 -12 -24 -26q-34 -31 -35 -65v-3q-5 -25 -4.5 -62t5.5 -63v-1v-1q6 -28 -11 -43v-1q-5 -4 -6 -5v-1q3 -39 25 -70q5 -7 21 -26
q22 -24 34.5 -40.5t27.5 -51.5t19 -72q4 -47 -3 -61q-7 -17 -29.5 -30.5t-64.5 -24.5q-38 -9 -75 -15q-61 -10 -100 -36q-30 -19 -46 -47q-18 -31 -16 -56v-2v-3h442h35h1h22q4 0 9.5 -0.5t20 -2.5t28 -5t30.5 -9t30 -15q6 -4 8 -12t-3 -15q-6 -9 -16 -9zM684 130l2 -1
q-1 1 -2 1zM684 130z" />
    <glyph glyph-name="uniE610" unicode="&#xe610;" 
d="M64 -147h283l-283 283v-283zM395 -101l-283 283l565 565l283 -283z" />
    <glyph glyph-name="uniE611" unicode="&#xe611;" horiz-adv-x="1336" 
d="M909 654q0 13 -4 26t-11 23t-17 17.5t-22 11.5t-25 4h-56q0 15 -6.5 29.5t-17 24.5t-25 16t-30.5 6h-55q-32 0 -54.5 -22t-24.5 -54h-56q-11 0 -21 -3t-18.5 -8t-16 -12.5t-12.5 -16t-8 -19t-3 -21.5l-300 -2q-52 0 -89 -37.5t-37 -90.5v-611q0 -52 37 -89.5t89 -37.5
h1083q15 0 29 3.5t26.5 9.5t23.5 15t20 20t15 23.5t9.5 26.5t3.5 29v611q0 53 -37 90.5t-90 37.5h-300zM668 745q18 0 31 -13t13 -31q0 -4 -0.5 -8t-2 -7.5t-3.5 -7t-4.5 -6.5t-5 -5.5t-6 -4.5t-7 -3t-7.5 -2t-8 -1q-19 0 -32 13t-13 32q0 12 6 22t16.5 16t22.5 6z
M1193 -101h-1050q-13 0 -22.5 9.5t-9.5 22.5v582q0 6 1.5 10.5t4.5 8.5t7 7t8.5 4.5t10.5 1.5h276q0 -33 23 -56t55 -23h319q32 0 55 23t23 56h299q9 0 16 -4.5t11 -11.5t4 -16v-74v-508q0 -13 -9 -22.5t-22 -9.5zM1104 389h-427q-13 0 -22 -10t-9 -23q0 -9 4 -17t11 -12.5
t16 -4.5h427q9 0 16 4.5t11 12.5t4 17q0 13 -9 23t-22 10zM1104 233h-427q-13 0 -22 -9.5t-9 -23.5q0 -9 4 -17t11 -12.5t16 -4.5h427q7 0 12.5 3t9.5 7.5t6.5 10.5t2.5 13q0 9 -4 16.5t-11 12t-16 4.5zM1104 77h-427q-13 0 -22 -9.5t-9 -23.5t9 -23.5t22 -9.5h427
q9 0 16 4.5t11 12t4 16.5q0 14 -9 23.5t-22 9.5zM498 143l-57 24l-27 22l-43 -40l20 -122l-1 -1l-21 -28h-1h-1h-1l-22 28v1l19 122l-42 40l-27 -22l-57 -24q-4 -2 -8.5 -4.5t-8 -6t-4.5 -6.5q-1 -2 -2.5 -6t-6.5 -15.5t-9 -22.5t-8.5 -25t-7 -25.5t-4 -21.5t1 -16t8.5 -6
h359q13 5 7 36t-21 66l-15 36q-1 3 -3 5.5t-5 4.5t-6 3.5t-6 3.5zM367 189q17 0 32.5 6t27.5 18.5t21 29.5t14 40t5 50q1 101 -100 101t-100 -101q1 -66 29 -105t71 -39z" />
    <glyph glyph-name="uniE612" unicode="&#xe612;" 
d="M953 725l-4 4q-70 71 -170.5 71t-171.5 -71l-218 -218q-71 -70 -71 -170.5t71 -171.5l4 -4q11 -11 25 -22l80 80q-15 9 -27 20l-4 4q-25 26 -34 59.5t0 67.5t34 59l219 218q18 19 42.5 28.5t49.5 9.5t49.5 -9.5t43.5 -28.5l4 -4q38 -38 38 -92.5t-38 -92.5l-99 -99
q26 -63 25 -133l152 153q71 71 71 171.5t-71 170.5zM631 411q-6 6 -12 11t-13 11l-80 -80q8 -5 14.5 -10t12.5 -10l4 -4q25 -26 34 -59.5t0 -67.5t-34 -59l-219 -218q-18 -19 -42.5 -28.5t-49.5 -9.5t-49.5 9.5t-43.5 28.5l-4 4q-38 38 -38 92.5t38 92.5l99 99
q-26 63 -25 133l-152 -153q-71 -71 -71 -171.5t71 -170.5l4 -4q70 -71 170.5 -71t171.5 71l218 218q71 70 71 170.5t-71 171.5z" />
    <glyph glyph-name="uniE613" unicode="&#xe613;" 
d="M593 541h430v-161h-430v161zM270 802q-40 19 -87 2t-66 -57q-20 -40 -3 -89t64 -72q30 -14 92 -28t123.5 -14t73.5 24q9 19 -12.5 55.5t-56.5 72.5t-71 66.5t-57 39.5zM201 647q-20 10 -27.5 29.5t1.5 39.5q9 19 30.5 23t41.5 -7q29 -14 80 -57t43 -61q-7 -9 -28.5 -8
t-51 9.5t-53.5 17t-36 14.5zM593 326h376v-538h-376v538zM1 541h430v-161h-430v161zM55 326h376v-538h-376v538zM907 747q-13 26 -39.5 43.5t-56 20.5t-57.5 -9q-29 -13 -80 -58t-90 -98t-27 -78q6 -13 26.5 -19t48 -5.5t59.5 4t62 10.5t55 14.5t38 13.5q47 23 64 72t-3 89z
M823 647q-35 -17 -97.5 -33.5t-71.5 0.5q-6 13 20 39.5t56.5 49t46.5 29.5q20 11 41.5 7t30.5 -23q4 -10 4.5 -20.5t-3 -19.5t-10.5 -16.5t-17 -12.5z" />
    <glyph glyph-name="uniE614" unicode="&#xe614;" 
d="M958 532q0 -85 -55 -134.5t-144 -58.5q-28 -66 -67 -114.5t-85 -74.5l-23 -182h5q35 0 62 -22t34 -56h21q8 0 13.5 -5.5t5.5 -13.5q0 -4 -1.5 -7.5t-4 -6t-6 -4.5t-7.5 -2h-389q-5 0 -9.5 3t-7 7.5t-2.5 9.5q0 8 5.5 13.5t13.5 5.5h21q5 22 18.5 40t34 28t43.5 10h5
l-23 182q-93 53 -152 189q-89 9 -144.5 58.5t-55.5 134.5v31q0 26 -0.5 36.5t3.5 23.5t7 16t16 7t23.5 3.5t36.5 -0.5h10h10h11h20q0 1 -0.5 8t-0.5 11v8q0 3 0.5 6.5t0.5 7.5v8v6q0 4 0.5 7.5t0.5 7.5q-2 4 -2 8t3 9q0 2 0.5 5t0.5 5h16h23h537h23h16v-5q1 -3 1 -5
q1 -2 2 -4.5t1 -4.5q0 -3 -0.5 -4.5t-1.5 -3.5q2 -29 2 -51q0 -4 -0.5 -11t-0.5 -8h20h30q27 0 37.5 0.5t23.5 -3.5t15.5 -7t6.5 -16t4 -23.5t-1 -36.5v-31zM434 -71q-19 0 -34 -10.5t-21 -28.5h265q-6 18 -21 28.5t-34 10.5h-155zM550 124h-77l13 -156h51zM182 610h-31h-21
q-17 0 -26 -1q0 -7 -0.5 -20.5t0.5 -25.5v-31q0 -65 39 -103t104 -49q-37 105 -45 230h-20zM783 707h-543q-1 -21 -1 -39q0 -101 22 -194.5t59 -161.5t87 -108.5t104.5 -40.5t104.5 40.5t87 108.5t59 161.5t22 194.5q0 18 -1 39zM918 609q-8 1 -26 1h-20h-2h-29h-20
q-8 -125 -45 -230q65 11 104 49.5t39 102.5v16v15q0 36 -1 46z" />
    <glyph glyph-name="uniE615" unicode="&#xe615;" 
d="M512 741q-117 0 -216.5 -57.5t-157.5 -157t-58 -217t58 -217t157.5 -157.5t216.5 -58q70 0 136 22t119 62t93 93t62 119t22 136q0 118 -58 217.5t-157.5 157t-216.5 57.5zM512 -73q-104 0 -192 51t-139 139t-51 192t51 192t139 139.5t192 51.5q78 0 148.5 -30.5
t122 -81.5t81.5 -122t30 -149q0 -151 -103 -262q-102 -108 -250 -119q-15 -1 -29 -1zM625 236q22 33 22 73q0 7 -1 14l-2 14h-110l83 57q-14 17 -32.5 28.5t-39.5 16.5l-31 -100l-32 101q-14 -3 -26.5 -9t-23.5 -14.5t-20 -18.5l88 -61h-119q-2 -14 -2 -28q0 -21 6 -40.5
t18 -36.5l95 68l-41 -113q26 -12 56 -12q6 0 12 0.5t12 2.5l12 2q6 2 11.5 4t11.5 5l-45 112zM206 538q-67 -90 -75 -201h250q4 17 11.5 32.5t19.5 28.5zM403 232l-202 -144q66 -93 171 -135l85 234q-33 15 -54 45zM572 189l93 -231q104 46 167 141l-207 137
q-10 -15 -23.5 -27t-29.5 -20zM894 337q-8 109 -72 197l-205 -140q20 -25 27 -57h250zM545 439l73 238q-12 4 -25 6.5t-26.5 4.5t-27 3t-26.5 1q-54 0 -104 -15l73 -237q15 3 31 3t32 -4zM684 565l-140 -125q-16 3 -32 3q-56 0 -95 -39t-39 -95q0 -36 18 -67t49 -49t67 -18
t67 18t49 49t18 67q0 40 -22 74z" />
    <glyph glyph-name="uniE616" unicode="&#xe616;" horiz-adv-x="1000" 
d="M827 403v241h-125v-111l-187 194l-439 -454h125v-329h167v164h292v-164h167v329h125z" />
    <glyph glyph-name="uniE617" unicode="&#xe617;" 
d="M472 540l-399 -400q-17 -16 -17 -39.5t16.5 -40t40 -16.5t40.5 16l359 360l359 -360q11 -10 25.5 -14t29 0t25.5 14q7 7 11 15t5 16.5t0 17.5t-5 17t-11 14l-399 400q-17 16 -40 16t-40 -16z" />
    <glyph glyph-name="uniE618" unicode="&#xe618;" 
d="M472 60l-399 400q-11 11 -15 25.5t0 29t15 25t25.5 14.5t29 0t25.5 -14l359 -360l359 360q11 10 25.5 14t29 0t25.5 -14q6 -6 9.5 -12.5t5.5 -13.5t2 -14.5t-2 -14.5t-5.5 -13.5t-9.5 -11.5l-399 -400q-17 -16 -40 -16t-40 16z" />
    <glyph glyph-name="uniE619" unicode="&#xe619;" 
d="M192 812v-1024h768v1024h-768zM576 556q53 0 90.5 -37.5t37.5 -90.5t-37.5 -90.5t-90.5 -37.5t-90.5 37.5t-37.5 90.5t37.5 90.5t90.5 37.5zM768 44h-384v64q0 53 37.5 90.5t90.5 37.5h128q53 0 90.5 -37.5t37.5 -90.5v-64zM64 748h96v-192h-96v192zM64 492h96v-192h-96
v192zM64 236h96v-192h-96v192zM64 -20h96v-192h-96v192z" />
    <glyph glyph-name="uniE61A" unicode="&#xe61a;" 
d="M791 268q0 36 12 70t24.5 53.5t34 39t26.5 23t14 9.5q-17 25 -39.5 44t-42.5 29.5t-42.5 17t-36 8.5t-26.5 2q-35 4 -75 -7.5t-73 -25.5t-48 -14q-17 0 -75 23t-94 22q-65 -1 -121.5 -35.5t-90.5 -92.5q-26 -46 -36 -102t-5.5 -111.5t19.5 -111.5t37.5 -104t49.5 -87
q16 -24 27 -38.5t28.5 -34.5t32.5 -31t34.5 -19t38.5 -7q30 1 78.5 21.5t89.5 20.5q40 0 88 -20.5t81 -20.5q25 1 47 11t42.5 30.5t33.5 37.5t34 47q47 69 71 145v1q-8 3 -17.5 8t-33 22.5t-41 38.5t-31.5 58t-15 80zM663 648q18 23 31 49t19 56t3 59q-26 -1 -54 -11.5
t-53.5 -27.5t-43.5 -39q-27 -31 -43.5 -74t-10.5 -84q41 -3 82 17.5t70 54.5z" />
    <glyph glyph-name="uniE61B" unicode="&#xe61b;" horiz-adv-x="1152" 
d="M480 812q98 0 186.5 -31t153 -83t102.5 -123.5t38 -150.5q0 -106 -64 -195.5t-175 -141.5t-241 -52q-38 0 -75 5q-37 -37 -79 -62t-87 -37.5t-85 -18t-90 -6.5v25q51 25 83.5 66t32.5 88q0 13 -2 27q-83 54 -130.5 133t-47.5 169q0 105 64 194.5t175 141.5t241 52z
M996 -59q0 -41 25 -76t67 -55v-22q-58 1 -101.5 8.5t-93.5 31.5t-92 66q-32 -4 -65 -4q-142 0 -254 69q109 1 208.5 34.5t176.5 96.5q79 63 123 147q46 89 46 187q0 15 -1 31q27 -23 48.5 -49t37 -55.5t23.5 -62t8 -65.5q0 -77 -41 -144.5t-113 -114.5q-1 -3 -1.5 -7
t-0.5 -8v-8z" />
    <glyph glyph-name="uniE61C" unicode="&#xe61c;" horiz-adv-x="1025" 
d="M304 204q0 -86 61 -147t147 -61t147 61t61 147t-61 147t-147 61t-147 -61t-61 -147zM960 556h-224q-5 18 -7.5 27.5t-7.5 25.5t-9.5 24.5t-12 20t-15.5 17t-19.5 9.5t-24.5 4h-256q-15 0 -28 -4.5t-22 -15t-15.5 -20t-13 -27.5t-9.5 -29t-8 -32h-224q-26 0 -45 -19
t-19 -45v-576q0 -26 19 -45t45 -19h896q26 0 45 19t19 45v576q0 26 -19 45t-45 19zM512 -80q-118 0 -201 83t-83 201t83 201t201 83t201 -83t83 -201t-83 -201t-201 -83zM960 364h-128v64h128v-64z" />
    <glyph glyph-name="uniE61D" unicode="&#xe61d;" 
d="M480 748q-98 0 -186.5 -38t-153 -102.5t-102.5 -153t-38 -186.5t38 -186.5t102.5 -153t153 -102.5t186.5 -38t186.5 38t153 102.5t102.5 153t38 186.5t-38 186.5t-102.5 153t-153 102.5t-186.5 38zM480 -116q-104 0 -192.5 51.5t-140 140t-51.5 192.5q0 78 30.5 149
t82 122.5t122.5 82t149 30.5t149 -30.5t122.5 -82t82 -122.5t30.5 -149t-30.5 -149t-82 -122.5t-122.5 -82t-149 -30.5zM608 236q9 0 16 4.5t11.5 11.5t4.5 16t-4.5 16t-11.5 11.5t-16 4.5h-68l95 142q7 11 4.5 24t-13.5 21q-6 3 -12 4.5t-12 0t-11.5 -5t-9.5 -8.5
l-101 -152l-101 152q-8 11 -21 13.5t-24 -5t-13.5 -20.5t4.5 -24l95 -142h-68q-9 0 -16 -4.5t-11.5 -11.5t-4.5 -16q0 -13 9.5 -22.5t22.5 -9.5h96v-64h-96q-13 0 -22.5 -9.5t-9.5 -22.5t9.5 -22.5t22.5 -9.5h96v-96q0 -13 9.5 -22.5t22.5 -9.5t22.5 9.5t9.5 22.5v96h96
q4 0 8.5 1t8 3t6.5 5t5 6.5t3 8t1 8.5q0 9 -4 16t-11.5 11.5t-16.5 4.5h-96v64h96z" />
    <glyph glyph-name="uniE61E" unicode="&#xe61e;" 
d="M772 492q28 20 51 43q25 25 41.5 55t21.5 61q12 71 -32 115q-16 17 -38.5 25.5t-48.5 8.5q-78 0 -144 -65q-80 -81 -126 -224q-14 60 -39.5 117t-66.5 97q-48 49 -112 49q-50 0 -84 -33q-37 -38 -32.5 -95.5t47.5 -101.5q29 -29 71 -52h-217v-256h64v-448h768v448h64v256
h-188zM674 684q14 14 30 24t32 15t31 5q10 0 19.5 -3t16.5 -10q20 -19 10.5 -58t-41.5 -71q-30 -30 -70 -53.5t-84 -40.5h-51q40 125 107 192zM234 651q-1 10 1.5 20.5t10.5 18.5q3 3 6.5 5t7 3.5t7 2t6.5 1t6 0.5q34 0 61 -27q26 -26 46.5 -65.5t34.5 -90.5q1 -2 2 -6
q-4 1 -6 2q-51 14 -90.5 34.5t-65.5 45.5q-25 25 -27 56zM448 -148h-256v416h256v-416zM448 300h-320v128h320v-128zM832 -148h-256v416h256v-416zM896 300h-320v128h320v-128z" />
    <glyph glyph-name="uniE61F" unicode="&#xe61f;" 
d="M960 684v-768h-896v768h896zM960 748h-896q-26 0 -45 -19t-19 -45v-768q0 -26 19 -45t45 -19h896q26 0 45 19t19 45v768q0 26 -19 45t-45 19zM832 524q0 -20 -7.5 -37.5t-20.5 -30.5t-30.5 -20.5t-37.5 -7.5q-40 0 -68 28t-28 68q0 20 7.5 37.5t20.5 30.5t30.5 20.5
t37.5 7.5t37.5 -7.5t30.5 -20.5t20.5 -30.5t7.5 -37.5zM896 -20h-768v128l224 384l256 -320h64l224 192v-384z" />
    <glyph glyph-name="uniE620" unicode="&#xe620;" 
d="M1024 222l-512 397l-512 -397v162l512 397l512 -397v-162zM896 236v-384h-256v256h-256v-256h-256v384l384 288z" />
    <glyph glyph-name="uniE621" unicode="&#xe621;" 
d="M832 620v128h-640v-128h-192v-128q0 -80 56 -136t136 -56q30 0 58 9q35 -50 86 -84t112 -47v-198h-64q-53 0 -90.5 -37.5t-37.5 -90.5h512q0 53 -37.5 90.5t-90.5 37.5h-64v198q30 7 59 18.5t54 28.5t46.5 38t38.5 46q10 -3 19 -5t19 -3t20 -1q80 0 136 56t56 136v128
h-192zM192 376q-24 0 -45.5 9t-37 24.5t-24.5 37t-9 45.5v64h116v-64q0 -20 2.5 -39.5t7 -38t11.5 -36.5q-11 -2 -21 -2zM948 492q0 -48 -34 -82t-82 -34q-10 0 -21 2q10 27 15.5 55.5t5.5 58.5v64h116v-64z" />
    <glyph glyph-name="uniE622" unicode="&#xe622;" 
d="M640 665v-136q55 -24 98 -67q94 -93 94 -226t-93.5 -226.5t-226.5 -93.5t-226.5 93.5t-93.5 226.5t94 226q43 43 98 67v136q-140 -41 -230 -160t-90 -269q0 -91 35.5 -174t95.5 -143t143 -95.5t174 -35.5t174 35.5t143 95.5t95.5 143t35.5 174q0 150 -90 269t-230 160z
M448 812h128v-512h-128v512z" />
    <glyph glyph-name="uniE623" unicode="&#xe623;" 
d="M1024 236l-128 256h-192v128q0 26 -19 45t-45 19h-576q-26 0 -45 -19t-19 -45v-512l64 -64h81q-17 -30 -17 -64q0 -53 37.5 -90.5t90.5 -37.5t90.5 37.5t37.5 90.5q0 34 -17 64h354q-17 -30 -17 -64q0 -53 37.5 -90.5t90.5 -37.5t90.5 37.5t37.5 90.5q0 17 -4.5 33.5
t-12.5 30.5h81v192zM704 236v192h133l96 -192h-229z" />
    <glyph glyph-name="uniE624" unicode="&#xe624;" 
d="M512 727q-116 0 -214.5 -57t-155.5 -155.5t-57 -214.5t57 -214.5t155.5 -155.5t214.5 -57t214.5 57t155.5 155.5t57 214.5q0 87 -34 166t-91 136t-136 91t-166 34zM725 257h-170v-170h-86v170h-170v86h170v170h86v-170h170v-86z" />
    <glyph glyph-name="uniE625" unicode="&#xe625;" 
d="M555 513h-86v-170h-170v-86h170v-170h86v170h170v86h-170v170zM512 727q-116 0 -214.5 -57t-155.5 -155.5t-57 -214.5t57 -214.5t155.5 -155.5t214.5 -57t214.5 57t155.5 155.5t57 214.5q0 87 -34 166t-91 136t-136 91t-166 34zM512 -41q-93 0 -171.5 45.5t-124 124
t-45.5 171.5q0 69 27 132.5t72.5 109t109 72.5t132.5 27t132.5 -27t109 -72.5t72.5 -109t27 -132.5t-27 -132.5t-72.5 -109t-109 -72.5t-132.5 -27z" />
    <glyph glyph-name="uniE626" unicode="&#xe626;" 
d="M512 556v-128l171 171l-171 170v-128q-69 0 -132.5 -27t-109 -72.5t-72.5 -109t-27 -132.5q0 -98 53 -182l62 63q-30 56 -30 119q0 106 75 181t181 75zM800 482l-62 -63q10 -18 16.5 -37t10 -40t3.5 -42q0 -106 -75 -181t-181 -75v128l-171 -171l171 -170v128
q93 0 171.5 45.5t124 124t45.5 171.5q0 98 -53 182z" />
    <glyph glyph-name="uniE627" unicode="&#xe627;" 
d="M811 684h-179q-13 38 -46 61.5t-74 23.5t-74 -23.5t-46 -61.5h-179q-11 0 -22 -3t-20.5 -8.5t-17.5 -13.5t-13.5 -17.5t-8.5 -20.5t-3 -22v-598q0 -35 25 -60t60 -25h598q35 0 60 25t25 60v598q0 48 -42 73q-20 12 -43 12zM512 684q18 0 30.5 -12.5t12.5 -30t-12.5 -30
t-30.5 -12.5t-30.5 12.5t-12.5 30t12.5 30t30.5 12.5zM597 87h-298v85h298v-85zM725 257h-426v86h426v-86zM725 428h-426v85h426v-85z" />
    <glyph glyph-name="uniE628" unicode="&#xe628;" 
d="M939 716h-139v64q0 13 -9.5 22.5t-22.5 9.5t-22.5 -9.5t-9.5 -22.5v-64h-192v64q0 13 -9.5 22.5t-22.5 9.5t-22.5 -9.5t-9.5 -22.5v-64h-192v64q0 13 -9.5 22.5t-22.5 9.5t-22.5 -9.5t-9.5 -22.5v-64h-139q-17 0 -33 -7t-27 -18t-18 -27t-7 -33v-758q0 -35 25 -60t60 -25
h854q35 0 60 25t25 60v758q0 35 -25 60t-60 25zM960 -127q0 -3 -1 -6.5t-3 -6t-4.5 -4.5t-6 -3t-6.5 -1h-854q-3 0 -6.5 1t-6 3t-4.5 4.5t-3 6t-1 6.5v758q0 5 3 10t8 8t10 3h139v-64q0 -7 2.5 -12.5t7 -10t10 -7t12.5 -2.5t12.5 2.5t10 7t7 10t2.5 12.5v64h192v-64
q0 -13 9.5 -22.5t22.5 -9.5q7 0 12.5 2.5t10 7t7 10t2.5 12.5v64h192v-64q0 -13 9.5 -22.5t22.5 -9.5t22.5 9.5t9.5 22.5v64h139q5 0 10 -3t8 -8t3 -10v-758zM224 428h128v-96h-128v96zM224 268h128v-96h-128v96zM224 108h128v-96h-128v96zM448 108h128v-96h-128v96z
M448 268h128v-96h-128v96zM448 428h128v-96h-128v96zM672 108h128v-96h-128v96zM672 268h128v-96h-128v96zM672 428h128v-96h-128v96z" />
    <glyph glyph-name="uniE629" unicode="&#xe629;" 
d="M826 384q-15 73 -59.5 131.5t-111.5 92t-143 33.5q-46 0 -89 -12.5t-79 -35t-66 -54.5t-50 -70q-63 -7 -115.5 -42t-82.5 -91t-30 -121q0 -106 75 -181t181 -75h555q88 0 150.5 62.5t62.5 150.5q0 97 -74 160q-54 46 -124 52zM725 257l-213 -213l-213 213h128v171h170
v-171h128z" />
    <glyph glyph-name="uniE62A" unicode="&#xe62a;" horiz-adv-x="1025" 
d="M640 727q78 0 149 -30.5t122.5 -82t82 -122.5t30.5 -149q0 -85 -35 -161t-96.5 -129.5t-140.5 -77.5l21 21q18 18 28 43q10 22 10 49q0 7 -1 9q60 42 94.5 106.5t34.5 139.5q0 60 -24 115.5t-64 95.5t-95 63.5t-116 23.5q-55 0 -106.5 -19.5t-90 -53.5t-65 -81.5
t-33.5 -101.5h-89q-71 0 -121 -50t-50 -120q0 -39 15.5 -72t40 -54t54.5 -33t61 -12h50q12 -29 30 -48l38 -37h-118q-70 0 -128.5 34t-93 93t-34.5 128.5t34.5 128.5t93 93.5t128.5 34.5h22q26 74 79 132t127 91t156 33zM554.5 385q17.5 0 30 -12.5t12.5 -29.5v-281l55 55
q13 12 31 12t30 -12t12 -30t-12 -31l-128 -128q-12 -12 -30 -12t-31 12l-128 128q-12 13 -12 31q0 17 12.5 29.5t30.5 12.5t30 -12l55 -55v281q0 17 12.5 29.5t30 12.5z" />
    <glyph glyph-name="uniE62B" unicode="&#xe62b;" 
d="M512 684q70 0 135.5 -21t115.5 -55t93.5 -75t73.5 -82t52 -75t32 -55l10 -21q-2 -5 -6 -13.5t-19 -34.5t-32 -51.5t-44.5 -60t-56.5 -64.5t-69.5 -60.5t-82.5 -51.5t-94.5 -34.5t-107.5 -13.5q-70 0 -135.5 21t-115.5 55t-93.5 74.5t-73.5 81.5t-52 74.5t-32 54.5l-10 21
q2 5 6 13.5t19 35t32 52t44.5 60.5t56.5 64.5t69.5 60t82.5 52t94.5 35t107.5 13.5zM512 599q-47 0 -92 -12.5t-81 -32t-70.5 -47t-59.5 -54.5t-49 -58t-38 -53t-26 -44q12 -21 26 -43t38 -52.5t49 -57t59.5 -54t70.5 -46.5t81 -31.5t92 -12.5t92 12.5t81 32t70.5 47
t59.5 54t49 57t38 52.5t26 44q-12 22 -26 44t-38 52.5t-49 57t-59.5 54t-70.5 47t-81 32t-92 12.5zM512 471q71 0 121 -50t50 -121t-50 -121t-121 -50t-121 50t-50 121t50 121t121 50zM512 385q-35 0 -60 -25t-25 -60t25 -60t60 -25t60 25t25 60t-25 60t-60 25z" />
    <glyph glyph-name="uniE62C" unicode="&#xe62c;" 
d="M627 82q-49 -38 -115 -38t-115 38q-7 6 -15.5 4.5t-14.5 -8.5q-3 -4 -4 -9.5t1 -11t7 -9.5q61 -47 141 -47t141 47q5 4 7 9.5t1 11t-4 9.5q-14 14 -30 4zM405 278.5q0 -8.5 -3 -16.5t-9 -13.5t-14 -9t-16 -3.5q-12 0 -22 5.5t-15.5 15.5t-5.5 22q0 17 12.5 29.5
t30.5 12.5q8 0 16 -3t14 -9t9 -14t3 -16.5zM512 812q-139 0 -257 -68.5t-186.5 -186.5t-68.5 -257t68.5 -257t186.5 -186.5t257 -68.5t257 68.5t186.5 186.5t68.5 257t-68.5 257t-186.5 186.5t-257 68.5zM852 180q-36 -122 -130 -199t-213.5 -77t-213.5 77.5t-130 199.5
q-38 3 -64 33.5t-26 73.5q0 40 24 70t60 36q68 48 116.5 107.5t57.5 108.5v0q18 -33 52.5 -65.5t83 -60.5t106 -48.5t126 -31.5t137.5 -10q10 2 13 2q26 0 49 -14.5t36 -39.5t13 -54q0 -45 -28.5 -76.5t-68.5 -31.5zM704 279q0 -7 -2 -13.5t-6 -12t-9.5 -9.5t-12 -6
t-13.5 -2q-11 0 -21 5.5t-15.5 15.5t-5.5 22q0 17 12.5 29.5t29.5 12.5q12 0 22 -5.5t15.5 -15.5t5.5 -21z" />
    <glyph glyph-name="uniE62D" unicode="&#xe62d;" 
d="M853 556h-341l-85 85h-256q-36 0 -60.5 -25t-24.5 -60l-1 -512q0 -35 25 -60t61 -25h682q36 0 61 25t25 60v427q0 35 -25 60t-61 25zM640 428q14 0 27 -4.5t23.5 -12t18.5 -18t12 -23.5t4 -27q0 -36 -25 -61t-60 -25q-23 0 -43 11.5t-31 31t-11 43.5q0 35 25 60t60 25z
M811 87h-342v42q0 20 18.5 37.5t46 27.5t55.5 15.5t51 5.5q18 0 39.5 -3.5t45 -10.5t42.5 -17t31.5 -24t12.5 -31v-42z" />
    <glyph glyph-name="uniE62E" unicode="&#xe62e;" 
d="M622 471l-110 -111l-110 111l-61 -61l111 -110l-111 -110l61 -61l110 111l110 -111l61 61l-111 110l111 110zM512 727q-116 0 -214.5 -57t-155.5 -155.5t-57 -214.5t57 -214.5t155.5 -155.5t214.5 -57t214.5 57t155.5 155.5t57 214.5q0 87 -34 166t-91 136t-136 91
t-166 34zM512 -41q-93 0 -171.5 45.5t-124 124t-45.5 171.5q0 69 27 132.5t72.5 109t109 72.5t132.5 27t132.5 -27t109 -72.5t72.5 -109t27 -132.5t-27 -132.5t-72.5 -109t-109 -72.5t-132.5 -27z" />
    <glyph glyph-name="uniE62F" unicode="&#xe62f;" 
d="M896 1v598q0 35 -25 60t-60 25h-598q-23 0 -42.5 -11.5t-31 -31t-11.5 -42.5v-598q0 -35 25 -60t60 -25h598q48 0 73 42q12 20 12 43zM363 236l106 -128l150 192l192 -256h-598z" />
    <glyph glyph-name="uniE630" unicode="&#xe630;" 
d="M853 44q36 0 60.5 25t24.5 60l1 470q0 23 -11.5 42.5t-31 31t-43.5 11.5h-682q-8 0 -15.5 -1.5t-14.5 -4t-13.5 -6t-12 -8.5t-10 -10.5t-8.5 -12t-6.5 -13t-4 -14.5t-1.5 -15v-470q0 -35 25 -60t61 -25h-171q0 -35 25 -60t60 -25h854q17 0 33 6.5t27 18t18 27.5t7 33
h-171zM171 599h682v-470h-682v470zM512 1q-18 0 -30.5 12.5t-12.5 30.5t12.5 30.5t30.5 12.5t30.5 -12.5t12.5 -30.5t-12.5 -30.5t-30.5 -12.5z" />
    <glyph glyph-name="uniE631" unicode="&#xe631;" 
d="M768 684v-85h-85v85h-342v-85h-85v85h-85v-768h85v85h85v-85h342v85h85v-85h85v768h-85zM341 87h-85v85h85v-85zM341 257h-85v86h85v-86zM341 428h-85v85h85v-85zM768 87h-85v85h85v-85zM768 257h-85v86h85v-86zM768 428h-85v85h85v-85z" />
    <glyph glyph-name="uniE632" unicode="&#xe632;" 
d="M725 769q51 0 97.5 -19t83.5 -56t56 -83.5t19 -97.5q0 -50 -19 -97t-56 -84l-128 -128q-3 -3 -11 -10q-35 -32 -79 -48.5t-91 -16.5q-58 0 -110 25q-39 19 -70.5 50.5t-50.5 70.5q25 25 61 25q12 0 25 -4q21 -35 56 -56q41 -25 89 -25q34 0 65 12.5t56 37.5l128 128
q25 24 37.5 55.5t12.5 65t-12.5 64.5t-37.5 56t-56 37.5t-64.5 12.5t-65 -12.5t-55.5 -37.5l-90 -90q-43 12 -88 12q-8 0 -21 -1q7 8 10 11l128 128q37 37 84 56t97 19zM427 471q58 0 110 -25q39 -19 70.5 -50.5t50.5 -70.5q-25 -25 -61 -25q-12 0 -25 4q-21 35 -56 56
q-41 25 -89 25q-34 0 -65 -12.5t-56 -37.5l-128 -128q-25 -24 -37.5 -55.5t-12.5 -65t12.5 -64.5t37.5 -56t56 -37.5t64.5 -12.5t65 12.5t55.5 37.5l90 90q43 -12 88 -12q8 0 21 1q-7 -8 -10 -11l-128 -128q-37 -37 -84 -56t-97 -19t-97.5 19t-83.5 56q-37 37 -56 83.5
t-19 97t19 97.5t56 84l128 128q3 3 11 10q35 32 79 48.5t91 16.5z" />
    <glyph glyph-name="uniE633" unicode="&#xe633;" 
d="M768 769h85q53 0 90.5 -37.5t37.5 -90.5v-85q0 -18 -12.5 -30.5t-30 -12.5t-30 12.5t-12.5 30.5v85q0 18 -12.5 30.5t-30.5 12.5h-85q-18 0 -30.5 12.5t-12.5 30t12.5 30t30.5 12.5zM85.5 87q17.5 0 30 -12.5t12.5 -30.5v-85q0 -18 12.5 -30.5t30.5 -12.5h85
q18 0 30.5 -12.5t12.5 -30t-12.5 -30t-30.5 -12.5h-85q-53 0 -90.5 37.5t-37.5 90.5v85q0 18 12.5 30.5t30 12.5zM85.5 428q17.5 0 30 -12.5t12.5 -30.5v-170q0 -18 -12.5 -30.5t-30 -12.5t-30 12.5t-12.5 30.5v170q0 18 12.5 30.5t30 12.5zM427 -84h170q18 0 30.5 -12.5
t12.5 -30t-12.5 -30t-30.5 -12.5h-170q-18 0 -30.5 12.5t-12.5 30t12.5 30t30.5 12.5zM171 769h85q18 0 30.5 -12.5t12.5 -30t-12.5 -30t-30.5 -12.5h-85q-18 0 -30.5 -12.5t-12.5 -30.5v-85q0 -18 -12.5 -30.5t-30 -12.5t-30 12.5t-12.5 30.5v85q0 53 37.5 90.5t90.5 37.5z
M938.5 87q17.5 0 30 -12.5t12.5 -30.5v-85q0 -53 -37.5 -90.5t-90.5 -37.5h-85q-18 0 -30.5 12.5t-12.5 30t12.5 30t30.5 12.5h85q18 0 30.5 12.5t12.5 30.5v85q0 18 12.5 30.5t30 12.5zM341 343h342q17 0 29.5 -12.5t12.5 -30.5t-12.5 -30.5t-29.5 -12.5h-342
q-17 0 -29.5 12.5t-12.5 30.5t12.5 30.5t29.5 12.5zM938.5 428q17.5 0 30 -12.5t12.5 -30.5v-170q0 -18 -12.5 -30.5t-30 -12.5t-30 12.5t-12.5 30.5v170q0 18 12.5 30.5t30 12.5zM427 769h170q18 0 30.5 -12.5t12.5 -30t-12.5 -30t-30.5 -12.5h-170q-18 0 -30.5 12.5
t-12.5 30t12.5 30t30.5 12.5z" />
    <glyph glyph-name="uniE634" unicode="&#xe634;" 
d="M512 513q18 0 30.5 -12.5t12.5 -29.5v-128h128q17 0 29.5 -12.5t12.5 -30.5t-12.5 -30.5t-29.5 -12.5h-128v-128q0 -17 -12.5 -29.5t-30.5 -12.5t-30.5 12.5t-12.5 29.5v128h-128q-17 0 -29.5 12.5t-12.5 30.5t12.5 30.5t29.5 12.5h128v128q0 17 12.5 29.5t30.5 12.5z
M85.5 87q17.5 0 30 -12.5t12.5 -30.5v-85q0 -18 12.5 -30.5t30.5 -12.5h85q18 0 30.5 -12.5t12.5 -30t-12.5 -30t-30.5 -12.5h-85q-53 0 -90.5 37.5t-37.5 90.5v85q0 18 12.5 30.5t30 12.5zM85.5 428q17.5 0 30 -12.5t12.5 -30.5v-170q0 -18 -12.5 -30.5t-30 -12.5t-30 12.5
t-12.5 30.5v170q0 18 12.5 30.5t30 12.5zM427 -84h170q18 0 30.5 -12.5t12.5 -30t-12.5 -30t-30.5 -12.5h-170q-18 0 -30.5 12.5t-12.5 30t12.5 30t30.5 12.5zM171 769h85q18 0 30.5 -12.5t12.5 -30t-12.5 -30t-30.5 -12.5h-85q-18 0 -30.5 -12.5t-12.5 -30.5v-85
q0 -18 -12.5 -30.5t-30 -12.5t-30 12.5t-12.5 30.5v85q0 53 37.5 90.5t90.5 37.5zM938.5 87q17.5 0 30 -12.5t12.5 -30.5v-85q0 -53 -37.5 -90.5t-90.5 -37.5h-85q-18 0 -30.5 12.5t-12.5 30t12.5 30t30.5 12.5h85q18 0 30.5 12.5t12.5 30.5v85q0 18 12.5 30.5t30 12.5z
M938.5 428q17.5 0 30 -12.5t12.5 -30.5v-170q0 -18 -12.5 -30.5t-30 -12.5t-30 12.5t-12.5 30.5v170q0 18 12.5 30.5t30 12.5zM427 769h170q18 0 30.5 -12.5t12.5 -30t-12.5 -30t-30.5 -12.5h-170q-18 0 -30.5 12.5t-12.5 30t12.5 30t30.5 12.5zM768 769h85q53 0 90.5 -37.5
t37.5 -90.5v-85q0 -18 -12.5 -30.5t-30 -12.5t-30 12.5t-12.5 30.5v85q0 18 -12.5 30.5t-30.5 12.5h-85q-18 0 -30.5 12.5t-12.5 30t12.5 30t30.5 12.5z" />
    <glyph glyph-name="uniE635" unicode="&#xe635;" 
d="M469 471q-34 0 -63.5 -17.5t-47 -47t-17.5 -63.5q0 -53 37.5 -90.5t90.5 -37.5t90.5 37.5t37.5 90.5q0 20 -6.5 40t-18 35.5t-27.5 27.5t-35.5 18.5t-40.5 6.5zM811 684h-598q-23 0 -42.5 -11.5t-31 -31t-11.5 -42.5v-598q0 -35 25 -60t60 -25h598q35 0 60 25t25 60v598
q0 35 -25 60t-60 25zM750 1l-163 164q-26 -17 -56 -26.5t-62 -9.5q-58 0 -107 28.5t-77.5 78t-28.5 107.5q0 43 17 82.5t45.5 68t68 45.5t82.5 17q89 0 151.5 -62.5t62.5 -150.5q0 -32 -9.5 -62t-26.5 -56l164 -163z" />
    <glyph glyph-name="uniE636" unicode="&#xe636;" 
d="M661 215h-34l-11 11q32 37 49.5 83.5t17.5 97.5q0 45 -14 87.5t-40 76.5t-60 59.5t-76 39.5t-87.5 14t-88 -14t-76.5 -39.5t-59.5 -59.5t-39.5 -76.5t-14 -87.5q0 -57 22 -108t59 -88.5t88.5 -59.5t107.5 -22q103 0 181 67l11 -12v-33l214 -213l63 63zM405.5 215
q-79.5 0 -136 56t-56.5 135.5t56.5 136t136 56.5t135.5 -56.5t56 -136t-56 -135.5t-135.5 -56z" />
    <glyph glyph-name="uniE637" unicode="&#xe637;" 
d="M768 727q71 0 121 -50t50 -121t-50 -121t-121 -50q-38 0 -71.5 15.5t-57.5 43.5l-216 -108q4 -18 4 -36t-4 -36l216 -108q24 28 57.5 43.5t71.5 15.5q71 0 121 -50t50 -121t-50 -121t-121 -50t-121 50t-50 121q0 18 4 36l-216 108q-24 -28 -57.5 -43.5t-71.5 -15.5
q-71 0 -121 50t-50 121t50 121t121 50q38 0 71.5 -15.5t57.5 -43.5l216 108q-4 18 -4 36q0 71 50 121t121 50zM256 385q-35 0 -60 -25t-25 -60t25 -60t60 -25t60 25t25 60t-25 60t-60 25zM768 129q-35 0 -60 -25t-25 -60t25 -60t60 -25t60 25t25 60t-25 60t-60 25zM768 641
q-35 0 -60 -25t-25 -60t25 -60t60 -25t60 25t25 60t-25 60t-60 25z" />
    <glyph glyph-name="uniE638" unicode="&#xe638;" 
d="M299 44q-18 0 -33.5 -7t-27 -18t-18 -27t-6.5 -33q0 -24 11 -43.5t30.5 -31t43.5 -11.5q35 0 60 25t25 60.5t-25 60.5t-60 25zM43 727v-86h85l153 -323l-57 -105q-5 -9 -8 -19.5t-3 -21.5q0 -17 7 -33t18.5 -27.5t27 -18t33.5 -6.5h512v85h-494q-11 0 -11 11q0 3 1 5
l39 69h317q24 0 44 12t31 32l153 277q5 10 5 21q0 17 -12.5 29.5t-30.5 12.5h-630l-41 86h-139zM725.5 44q-35.5 0 -60.5 -25t-25 -60q0 -24 11.5 -43.5t31 -31t42.5 -11.5q36 0 61 25t25 60.5t-25 60.5t-60.5 25z" />
    <glyph glyph-name="uniE639" unicode="&#xe639;" 
d="M959 594q-2 38 -29.5 64t-65.5 26h-96v32q0 40 -28 68t-68 28h-320q-40 0 -68 -28t-28 -68v-32h-96q-25 0 -46.5 -12t-34.5 -32.5t-14 -45.5h-1v-70q0 -13 5 -25t13.5 -20.5t20.5 -13.5t25 -5v-544q0 -53 37.5 -90.5t90.5 -37.5h512q35 0 64.5 17t46.5 46.5t17 64.5v544
q26 0 45 18.5t19 45.5v70h-1zM320 716q0 9 4.5 16t11.5 11.5t16 4.5h320q9 0 16 -4.5t11.5 -11.5t4.5 -16v-32h-384v32zM832 -84q0 -26 -19 -45t-45 -19h-512q-26 0 -45 19t-19 45v544h640v-544zM896 556v-32h-768v64q0 9 4.5 16t11.5 11.5t16 4.5h704q13 0 22.5 -9.5
t9.5 -22.5v-32zM288 -84h64q13 0 22.5 9.5t9.5 22.5v416q0 13 -9.5 22.5t-22.5 9.5h-64q-13 0 -22.5 -9.5t-9.5 -22.5v-416q0 -13 9.5 -22.5t22.5 -9.5zM288 364h64v-416h-64v416zM480 -84h64q13 0 22.5 9.5t9.5 22.5v416q0 13 -9.5 22.5t-22.5 9.5h-64q-13 0 -22.5 -9.5
t-9.5 -22.5v-416q0 -7 2.5 -13t7 -10t10 -6.5t12.5 -2.5zM480 364h64v-416h-64v416zM672 -84h64q9 0 16 4t11.5 11.5t4.5 16.5v416q0 6 -2.5 12t-7 10.5t-10 7t-12.5 2.5h-64q-9 0 -16 -4.5t-11.5 -11.5t-4.5 -16v-416q0 -9 4.5 -16.5t11.5 -11.5t16 -4zM672 364h64v-416
h-64v416z" />
    <glyph glyph-name="uniE63A" unicode="&#xe63a;" 
d="M512 769q70 0 128.5 -34t93 -93t34.5 -129v-42q0 -18 -12.5 -30.5t-30 -12.5t-30 12.5t-12.5 30.5v42q0 71 -50 121t-121 50t-121 -50t-50 -121v-170h512q53 0 90.5 -37.5t37.5 -90.5v-256q0 -53 -37.5 -90.5t-90.5 -37.5h-682q-53 0 -90.5 37.5t-37.5 90.5v256
q0 53 37.5 90.5t90.5 37.5h85v170q0 70 34.5 129t93 93t128.5 34zM853 257h-682q-18 0 -30.5 -12.5t-12.5 -29.5v-256q0 -18 12.5 -30.5t30.5 -12.5h682q18 0 30.5 12.5t12.5 30.5v256q0 17 -12.5 29.5t-30.5 12.5z" />
    <glyph glyph-name="uniE63B" unicode="&#xe63b;" 
d="M960 620h-28q-27 0 -45 -18l-87 -86v40q0 40 -28 68t-68 28h-608q-40 0 -68 -28t-28 -68v-512q0 -40 28 -68t68 -28h608q40 0 68 28t28 68v39l87 -85q9 -9 20.5 -14t24.5 -5h28q27 0 45.5 19t18.5 45v513q0 27 -18.5 45.5t-45.5 18.5zM96 12q-13 0 -22.5 9.5t-9.5 22.5
v512q0 13 9.5 22.5t22.5 9.5h608q13 0 22.5 -9.5t9.5 -22.5v-512q0 -13 -9.5 -22.5t-22.5 -9.5h-608zM960 43h-32l-128 128v1l-32 32v192l160 160h32v-513z" />
    <glyph glyph-name="uniE63C" unicode="&#xe63c;" 
d="M0 812v-128h1024v128h-1024zM512 556l-384 -384h256v-384h256v384h256z" />
    <glyph glyph-name="uniE63D" unicode="&#xe63d;" 
d="M0 812v-384h384v384h-384zM640 812v-384h384v384h-384zM0 172v-384h384v384h-384zM640 172v-384h384v384h-384z" />
    <glyph glyph-name="uniE63E" unicode="&#xe63e;" 
d="M0 812v-1024h896v512h-512v512h-384zM512 812v-384h384z" />
    <glyph glyph-name="uniE63F" unicode="&#xe63f;" 
d="M864 736h-704q-40 0 -68 -28t-28 -68v-160q0 -13 9.5 -22.5t22.5 -9.5q7 0 12.5 2.5t10 7t7 10t2.5 12.5v128q0 17 8.5 32t23.5 23.5t32 8.5h640q27 0 45.5 -18.5t18.5 -45.5v-128q0 -13 9.5 -22.5t22.5 -9.5t22.5 9.5t9.5 22.5v160q0 40 -28 68t-68 28zM928 128
q-13 0 -22.5 -9.5t-9.5 -22.5v-128q0 -13 -5 -25t-13.5 -20.5t-20.5 -13.5t-25 -5h-640q-27 0 -45.5 18.5t-18.5 45.5v128q0 13 -9.5 22.5t-22.5 9.5t-22.5 -9.5t-9.5 -22.5v-160q0 -40 28 -68t68 -28h704q40 0 68 28t28 68v160q0 13 -9.5 22.5t-22.5 9.5zM928 320h-832
q-9 0 -16 -4.5t-11.5 -11.5t-4.5 -16q0 -13 9.5 -22.5t22.5 -9.5h832q13 0 22.5 9.5t9.5 22.5q0 7 -2.5 12.5t-7 10t-10 7t-12.5 2.5z" />
    <glyph glyph-name="uniE640" unicode="&#xe640;" 
d="M352 -83zM288 -83.5q0 26.5 18.5 45.5t45 19t45.5 -19t19 -45q0 -18 -9 -32.5t-23.5 -23t-31.5 -8.5q-27 0 -45.5 18.5t-18.5 45zM863 77h-520q-6 0 -12.5 3.5t-11 10t-5.5 13.5l-54 383l-31 178q-4 35 -31 59t-62 24h-41q-13 0 -22.5 -9.5t-9.5 -22.5t9.5 -22.5
t22.5 -9.5h41q10 0 19 -8.5t11 -19.5l31 -179l54 -381q3 -23 16 -42t33.5 -30t42.5 -11h520q13 0 22.5 9t9.5 22.5t-9.5 23t-22.5 9.5zM799 -83zM735 -83q0 17 8.5 31.5t23.5 23.5t32 9q27 0 45.5 -19t18.5 -45.5t-18.5 -45t-45 -18.5t-45.5 18.5t-19 45.5zM319 588h161
q13 0 22.5 9.5t9.5 22.5t-9.5 22.5t-22.5 9.5h-161q-6 0 -12 -2.5t-10.5 -7t-7 -10t-2.5 -12.5q0 -13 9.5 -22.5t22.5 -9.5zM883 332q-13 0 -22.5 -9.5t-9.5 -22.5v0l-5 -37q0 -3 -1.5 -6t-3 -5.5t-3.5 -5t-4.5 -4t-5.5 -3t-6.5 -2.5t-6.5 -1l-434 -32q-13 -1 -22 -11
t-8 -23q1 -6 3.5 -11.5t7 -9.5t10 -6t11.5 -2h3l431 32q10 0 19.5 2t18 6t16.5 9.5t14.5 12.5t11.5 15t8 17t4 19l6 44v1v1q0 13 -9.5 22.5t-22.5 9.5zM752 332q86 0 147 61t61 147t-61 147t-147 61t-147 -61t-61 -147t61 -147t147 -61zM752 684q60 0 102 -42t42 -102
t-42 -102t-102 -42t-102 42t-42 102t42 102t102 42zM720 508v-48q0 -13 9.5 -22.5t22.5 -9.5t22.5 9.5t9.5 22.5v48h48q13 0 22.5 9.5t9.5 22.5t-9.5 22.5t-22.5 9.5h-48v48q0 13 -9.5 22.5t-22.5 9.5t-22.5 -9.5t-9.5 -22.5v-48h-48q-13 0 -22.5 -9.5t-9.5 -22.5t9.5 -22.5
t22.5 -9.5h48z" />
    <glyph glyph-name="uniE641" unicode="&#xe641;" 
d="M877 320zM758.5 -138.5q9.5 9.5 10 22.5t-7.5 22l-377 376q-12 12 -12 18t12 18l377 376q4 5 6 10.5t1.5 11.5t-3 11.5t-6.5 10.5q-10 9 -23 9.5t-22 -7.5l-418 -419q-7 -7 -8 -18v-6q0 -5 2 -10t6 -8l418 -419q9 -8 22 -8t22.5 9.5z" />
    <glyph glyph-name="uniE642" unicode="&#xe642;" 
d="M877 320zM575 302l372 369q13 13 13 32t-13 32t-31.5 13t-31.5 -13l-372 -370l-368 370q-13 13 -31.5 13t-32 -13t-13.5 -31.5t13 -32.5l369 -369l-372 -370q-13 -13 -13 -31.5t13 -31.5q6 -7 14.5 -10t17.5 -3q18 0 31 13l372 369l371 -373q3 -2 6 -4.5t6 -4t6.5 -2.5
t7 -1.5t6.5 -0.5q19 0 32 13t13 31.5t-13 31.5zM575 302z" />
    <glyph glyph-name="uniE643" unicode="&#xe643;" 
d="M805 663q-54 21 -104.5 20.5t-82 -13t-60 -34t-36.5 -31.5t-13 -16q-5 6 -13.5 16t-36.5 31.5t-59.5 34t-82.5 13t-104 -20.5q-60 -23 -100.5 -76.5t-46.5 -131.5t25.5 -164t129.5 -183.5t253 -181.5q19 -10 35 -11v0v0q16 1 35 11q88 48 158 100t116 102.5t77.5 102
t44 99t14 92t-10 82.5t-31 69.5t-47 54t-60.5 35.5zM539 -4q-9 -5 -16.5 -7t-13.5 -2q-14 0 -30 9q-137 78 -222 162.5t-110.5 155.5t-18 133t44.5 102.5t88 56.5q46 12 78.5 6.5t60.5 -22.5t46 -35.5t35 -33t28 -14.5v0v0q12 0 35.5 21.5t49 44.5t68.5 36t94 -3
q37 -11 67 -35t48 -60t23 -79.5t-13.5 -96t-57 -106.5t-111.5 -115t-173 -118z" />
    <glyph glyph-name="uniE644" unicode="&#xe644;" 
d="M877 278zM856 187l-320 -327q-8 -7 -19 -9h-3h-1h-3q-12 2 -19 9l-321 327q-9 9 -9 22t9 22.5t22 9.5t22 -9l268 -273v757q0 13 9 22t22 9h1q13 0 22 -9t9 -22v-757l267 273q10 9 22.5 9t21.5 -9q4 -4 6 -8.5t3 -9.5t0 -9.5t-3 -9t-6 -8.5z" />
    <glyph glyph-name="uniE645" unicode="&#xe645;" 
d="M877 320zM298 -138.5q-9 9.5 -10 22.5t8 22l376 376q12 12 12 18t-12 18l-376 376q-9 9 -8 22t10 22q6 6 14.5 8.5t16.5 0.5t13 -7l419 -419q7 -7 7 -18v-6q0 -5 -2 -10t-5 -8l-419 -419q-8 -8 -21.5 -8t-22.5 9.5z" />
    <glyph glyph-name="uniE646" unicode="&#xe646;" 
d="M960 492h-288q-26 0 -45 -19t-19 -45v-576q0 -26 19 -45t45 -19h288q26 0 45 19t19 45v576q0 26 -19 45t-45 19zM736 460h160v-32h-160v32zM768 -148h-96v32h96v-32zM960 -148h-96v32h96v-32zM960 -52h-288v448h288v-448zM96 716h768v-160h96v194q0 26 -18 44t-44 18
h-836q-26 0 -44 -18t-18 -44v-644q0 -13 5 -24.5t13 -19.5t19.5 -13t24.5 -5h290q0 -40 -28 -68t-68 -28q-7 0 -11.5 -4.5t-4.5 -11.5t4.5 -11.5t11.5 -4.5h288v352h-448v448zM480 204q13 0 22.5 -9.5t9.5 -22.5t-9.5 -22.5t-22.5 -9.5t-22.5 9.5t-9.5 22.5t9.5 22.5
t22.5 9.5z" />
    <glyph glyph-name="uniE647" unicode="&#xe647;" horiz-adv-x="1182" 
d="M1132 -181q-27 5 -53 16t-51.5 28t-47 42.5t-35.5 56.5q72 43 125 101t82.5 129t29.5 147q0 97 -47 184.5t-126 150.5t-188.5 100.5t-229.5 37.5t-229.5 -37.5t-188.5 -100.5t-126 -150.5t-47 -184t47 -184t126 -150.5t188.5 -100.5t229.5 -37.5q63 0 127 11
q163 -112 410 -84q14 1 14 13q0 10 -10 12zM354 261q-21 0 -39 10.5t-28.5 28.5t-10.5 39.5t10.5 39.5t28.5 28.5t39 10.5q33 0 56 -23t23 -55.5t-23 -55.5t-56 -23zM591 261q-22 0 -40 10.5t-28.5 28.5t-10.5 39.5t10.5 39.5t28.5 28.5t40 10.5q32 0 55.5 -23t23.5 -56
q0 -16 -6.5 -30.5t-17 -25t-25 -16.5t-30.5 -6zM827 261q-21 0 -39.5 10.5t-29 28.5t-10.5 39.5t10.5 39.5t29 28.5t39.5 10.5q33 0 56 -23t23 -56q0 -12 -4 -24.5t-11.5 -22t-17 -16.5t-21.5 -11t-25 -4z" />
    <glyph glyph-name="uniE648" unicode="&#xe648;" 
d="M512 812q-133 0 -226.5 -93.5t-93.5 -226.5q0 -90 33 -195.5t80 -192t94 -160t80 -114.5l33 -42q13 16 34.5 43.5t77 111t97.5 164.5t76.5 188t34.5 197q0 133 -93.5 226.5t-226.5 93.5zM512 296q-81 0 -138.5 57.5t-57.5 138.5t57.5 138.5t138.5 57.5t138.5 -57.5
t57.5 -138.5t-57.5 -138.5t-138.5 -57.5zM388 492q0 51 36.5 87.5t87.5 36.5t87.5 -36.5t36.5 -87.5t-36.5 -87.5t-87.5 -36.5t-87.5 36.5t-36.5 87.5z" />
    <glyph glyph-name="uniE649" unicode="&#xe649;" 
d="M704 172q-24 -24 -45 -59.5t-38 -52t-45 -16.5q-23 0 -46.5 9.5t-51 31.5t-45 38.5t-49.5 48.5t-48.5 49.5t-38.5 45t-31.5 51t-9.5 46.5q0 28 16.5 45t52 38t59.5 45q30 30 -6 93t-95 113t-91 50q-28 0 -76 -48t-82 -96l-34 -48q0 -95 81 -256.5t175 -255.5t255.5 -175
t256.5 -81q8 5 21 14t46 34.5t58 48.5t46 50t21 45q0 32 -50 91t-113 95t-93 6z" />
    <glyph glyph-name="uniE64A" unicode="&#xe64a;" 
d="M934 202q-41 70 -19.5 148t91.5 118l-101 175q-22 -13 -46.5 -20t-51.5 -7q-52 0 -97 26t-71 71.5t-26 98.5h-201q0 -53 -26 -98q-41 -70 -119 -90.5t-148 19.5l-101 -174q46 -26 72 -72q40 -69 19 -147t-91 -119l101 -174q45 26 97 26q81 0 138 -57t57 -138h201
q0 52 26 97q27 46 72.5 72t95.5 25.5t99 -26.5l100 175q-45 26 -71 71zM512 93q-86 0 -146.5 60.5t-60.5 146.5t60.5 146.5t146.5 60.5t146.5 -60.5t60.5 -146.5t-60.5 -146.5t-146.5 -60.5z" />
    <glyph glyph-name="uniE64B" unicode="&#xe64b;" 
d="M768 812h-576q-26 0 -45 -19t-19 -45v-896q0 -26 19 -45t45 -19h576q26 0 45 19t19 45v896q0 26 -19 45t-45 19zM480 -166q-32 0 -46 30q-4 9 -4 20q0 14 7 25t18 18t25 7q10 0 19.5 -4t16 -10.5t10.5 -16t4 -19.5q0 -21 -14.5 -35.5t-35.5 -14.5zM768 -20h-576v704h576
v-704z" />
    <glyph glyph-name="uniE64C" unicode="&#xe64c;" 
d="M576 105v53q54 31 91 98t37 140q0 39 -0.5 58.5t-2.5 53t-7 50.5t-14 41t-23 36.5t-34 25.5t-48 18t-63 5t-63 -5t-48 -18t-34 -25.5t-23 -36.5t-14 -41t-7 -50.5t-2.5 -53t-0.5 -58.5q0 -73 37 -140t91 -98v-53q-107 -8 -195 -43.5t-138.5 -91t-50.5 -118.5h896
q0 63 -50.5 118.5t-138.5 91t-195 43.5z" />
    <glyph glyph-name="uniE64D" unicode="&#xe64d;" 
d="M320 620q0 80 56 136t136 56t136 -56t56 -136t-56 -136t-136 -56t-136 56t-56 136zM768 364h-35l-199 -404l74 372l-96 96l-96 -96l74 -372l-199 404h-35q-19 0 -34.5 -2t-28 -8t-22 -11.5t-16 -16t-11.5 -18.5t-8 -23t-4.5 -24.5t-2.5 -28t-1 -28.5v-32v-320h768v320v34
q0 12 -1.5 32.5t-3.5 31t-6.5 26t-10.5 23.5t-16 18.5t-22.5 15t-29.5 8t-38 3.5z" />
    <glyph glyph-name="uniE64E" unicode="&#xe64e;" 
d="M730 611.5q-85 85.5 -206 85.5q-59 0 -112 -22t-94 -64q-86 -85 -86 -206q0 -79 40 -148q35 -59 93 -96v-143q0 -27 19.5 -47t47.5 -20h183q28 0 47.5 20t19.5 47v142q29 19 52.5 43.5t40.5 53.5q7 11 12.5 23t10 24t7.5 24.5t5.5 25t3.5 25.5t1 26q0 121 -85 206.5z
M615 2h-183q-7 0 -11.5 5t-4.5 11v61h215v-61q0 -13 -13 -15q-2 -1 -3 -1zM731 283q-16 -27 -38 -49t-49 -37l-13 -8v-59h-215v60l-13 7q-55 32 -87 86q-33 57 -33 122q0 100 70.5 170.5t170.5 70.5q48 0 92 -18.5t78 -52.5q70 -70 70 -170q0 -66 -33 -122zM612 -81h-177
q-11 0 -18.5 -7.5t-7.5 -18t7.5 -18t18.5 -7.5h177q11 0 18.5 7.5t7.5 18t-7.5 18t-18.5 7.5zM218 622z" />
    <glyph glyph-name="uniE64F" unicode="&#xe64f;" 
d="M730 599q-41 42 -94.5 64t-111.5 22q-121 0 -206.5 -85.5t-85.5 -206.5q0 -79 40 -148q35 -59 93 -96v-143q0 -18 9 -33.5t24.5 -24.5t33.5 -9h183q18 0 33.5 9t24.5 24.5t9 33.5v142q58 38 93 97q40 68 40 148q0 121 -85 206zM612 -93h-177q-11 0 -18.5 -7.5t-7.5 -18.5
q0 -7 3.5 -12.5t9.5 -9t13 -3.5h177q11 0 18.5 7.5t7.5 17.5q0 4 -1 7.5t-2.5 6t-4 5t-5 4t-6 2.5t-7.5 1z" />
    <glyph glyph-name="uniE650" unicode="&#xe650;" 
d="M511 748q-37 0 -72.5 -6t-68.5 -17t-64.5 -27t-59 -36.5t-52 -45t-44.5 -52t-36.5 -58.5t-27.5 -64t-17 -69t-6 -73q0 -91 35.5 -174t95.5 -142.5t143 -95t174 -35.5t174 35.5t143 95t95.5 142.5t35.5 174q0 41 -7.5 80.5t-21 76t-33 70t-44 62.5t-53.5 53.5t-63 44
t-70 33t-75.5 21t-80.5 7.5zM231 20q1 -7 -3.5 -11.5t-10.5 -4.5h-2q-6 0 -10.5 3.5t-4.5 9.5q-15 161 67 283q18 25 41 50q-5 11 -5 23q0 24 17 41t42 17q16 0 29.5 -7.5t21 -21t7.5 -29.5t-7.5 -29.5t-21 -21.5t-29.5 -8q-19 0 -34 10q-10 -10 -18.5 -20.5t-16.5 -22.5
q-75 -113 -62 -261zM359 192q-20 0 -40 4q-6 2 -9.5 7.5t-2.5 11.5q2 6 7.5 9.5t11.5 2.5q8 -2 16.5 -3t16.5 -1q60 0 103 43t43 103.5t-43 103t-103 42.5t-103 -42.5t-43 -103.5q0 -17 4 -34t12 -32q3 -6 1 -12.5t-8 -8.5q-4 -2 -8 -2t-7.5 2t-5.5 6q-20 38 -20 81
q0 74 52 126t125.5 52t126 -52t52.5 -126q0 -48 -24 -89t-65 -64.5t-89 -23.5zM689 398q-12 0 -23.5 2.5t-22.5 7.5q-37 18 -51 57.5t3.5 77t57 51.5t77 -4t51.5 -57.5t-4 -76.5q-5 -12 -12 -19q-2 -3 -5.5 -3.5t-6.5 1.5q-2 2 -3 4t-0.5 4.5t1.5 4.5q6 7 10 16q9 21 7.5 42
t-14 39.5t-32.5 28.5q-22 9 -43 7.5t-39.5 -14t-27.5 -32.5q-10 -22 -8.5 -43t14 -39.5t33.5 -28.5q18 -8 38 -8q4 0 6.5 -2.5t2.5 -6t-2.5 -6t-6.5 -3.5zM829 331q-86 32 -129 104q-9 16 -16 33h-3h-3l-4 2q-1 0 -3 1q-13 6 -17.5 19t1.5 25.5t19 17t25.5 -1.5t17 -19
t-1.5 -25q-5 -10 -13 -15q6 -15 14 -28q10 -17 22.5 -31t27 -26t32 -22t37.5 -17q8 -3 6 -11q-1 0 -1 -1q-1 -3 -4.5 -4.5t-6.5 -0.5z" />
    <glyph glyph-name="uniE651" unicode="&#xe651;" 
d="M618 110h-48q-7 4 -7 15v101l-54 -1v-112q0 -2 0.5 -4t3.5 -7t7.5 -9t13.5 -7t20 -3h91v136h-27v-109zM455 219h-51h-6q-3 0 -12 -2.5t-16.5 -7.5t-16 -16t-13.5 -26q-4 -28 7 -53q1 -3 4 -7t9.5 -10t17.5 -10t24 -4h80v205h-27v-69zM455 110h-41q-2 0 -6.5 1t-13.5 8.5
t-12 19.5q-4 13 3 31q2 7 9 14.5t18 7.5h43v-82zM513 812q-189 0 -332 -122q-137 -117 -171 -292q-9 -49 -9 -97q0 -104 40.5 -199t109 -163.5t163.5 -109t199 -40.5t198.5 40.5t163 109t109 163.5t40.5 199t-40.5 198.5t-109 163t-163 109t-198.5 40.5zM544 541
q3 30 31 60.5t53 25.5q17 -4 32.5 -19t24 -36t4.5 -41q-5 -35 -29.5 -63.5t-59.5 -24.5q-34 5 -47 32t-9 66zM439 643q28 0 48 -28.5t20 -68.5t-20 -68t-48.5 -28t-48 28t-19.5 68q0 27 9 49t24.5 35t34.5 13zM227 414q0 2 0.5 4.5t2 11t4.5 16t8 17.5t11 17t16 12t21 6
q20 2 38.5 -10.5t28.5 -29t12 -31.5q1 -8 1.5 -14t0 -19.5t-3.5 -24.5t-9 -23t-18 -20.5t-28 -12.5q-31 -6 -53 12t-29 43.5t-3 45.5zM744 71q-7 -18 -21 -29.5t-29 -17t-33.5 -6.5t-32.5 0t-29 4t-20 4.5t-8 2.5q-5 2 -14.5 4t-39.5 4.5t-54 -5.5q-12 -2 -24.5 -4t-22.5 -3
t-20 -1.5t-17.5 -0.5t-13 0.5t-7.5 0.5h-3q-3 0 -8 0.5t-17.5 5t-23.5 12t-22.5 25.5t-16.5 42q-4 27 -0.5 46.5t16.5 37.5t24 28.5t22.5 19t12.5 9.5t16 14t33.5 32.5t30.5 41.5q9 15 24 27t34 18t39.5 4.5t42 -16t38.5 -41.5q10 -14 21.5 -28t23 -26t23.5 -23t21.5 -20
t17.5 -15.5t12 -9.5l4 -4q3 -1 6.5 -5t11.5 -16.5t12.5 -26.5t3 -37t-12.5 -48zM733 271q-15 0 -27.5 2.5t-20.5 7.5t-13.5 12.5t-8.5 14.5t-5 17t-2.5 17t-0.5 17q0 94 68 94q13 0 23.5 -3.5t18 -8.5t14 -12.5t10 -15t6 -15t3.5 -13t1 -10.5q0 -1 1 -5q0 -13 -0.5 -21
t-3.5 -24t-9.5 -26.5t-20 -19t-33.5 -8.5z" />
    <glyph glyph-name="uniE652" unicode="&#xe652;" 
d="M522 771q-79 0 -153 -24t-134 -69t-104.5 -104.5t-69 -133.5t-24.5 -153q0 -99 38.5 -189t103 -155t154.5 -103t189 -38q79 0 153 24t133.5 69t104.5 104.5t69.5 133.5t24.5 154q0 65 -17.5 128t-49 116.5t-76 98t-98 76t-116 48.5t-128.5 17zM725 226q-10 -10 -8 -24
l3 -19q-68 0 -130 3.5t-113 11.5q-4 1 0 4l236 164q10 6 0 7q-6 1 -16 2.5t-17 2.5l-7 1q-74 9 -156 9q-69 0 -132.5 -6.5t-115.5 -18.5h3h4q184 0 306 -19v-4l-236 -169l-5 -4q-1 -2 4 -3q12 -2 24.5 -3t26 -2.5t26.5 -2.5q48 -3 95 -3q144 0 255 26l5 1q-8 -6 -21.5 -12.5
t-30.5 -11.5l34 -185q3 -15 -4.5 -20.5t-20.5 2.5l-197 114q-20 12 -40 -1l-197 -113q-9 -5 -15 -4.5t-9 6.5t-1 16l44 232q2 7 1 11t-7 10l-171 158q-11 10 -8.5 18.5t17.5 10.5l220 25q6 0 10 1t7 3t5 4.5t5 7.5l103 214q4 9 10 12.5t12 0t10 -12.5l97 -214q2 -6 4 -9
t5 -5t7 -3t10 -2l227 -22q15 -2 18 -10t-9 -19z" />
    <glyph glyph-name="uniE653" unicode="&#xe653;" 
d="M444 219q-11 -8 -4 -20q3 -4 8 -4.5t10 3t6.5 9.5t-1.5 10q-6 11 -19 2zM395 206q-14 -2 -24 -12.5t-10 -23.5q0 -12 10.5 -19.5t25 -5.5t25 11.5t10.5 22.5q0 21 -24 26q-7 1 -13 1zM444 328q-79 -4 -133.5 -41t-54.5 -89t55 -86t133 -30q50 2 93.5 22t68.5 51.5
t25 65.5q0 51 -54 80.5t-133 26.5zM514 154q-25 -33 -66.5 -42t-88.5 14q-28 15 -28 46q1 1 -1 10.5t3 25t12.5 30.5t28 28t49.5 16q37 5 62.5 -8.5t34.5 -35.5t7.5 -45.5t-13.5 -38.5zM512 810q-139 0 -256 -68.5t-185.5 -185.5t-68.5 -256q0 -104 40.5 -198.5
t108.5 -162.5t162.5 -108.5t198.5 -40.5t198.5 40.5t162.5 108.5t108.5 162.5t40.5 198.5t-40.5 198.5t-108.5 162.5t-162.5 108.5t-198.5 40.5zM724 175q-30 -65 -117 -99.5t-171 -27.5q-18 1 -34.5 3.5t-34.5 6.5t-34.5 9t-33 12t-30.5 16t-27 20.5t-22 25.5t-15.5 31
t-8.5 37q-1 6 -0.5 17t11.5 43.5t35 64.5q3 4 8.5 11.5t23.5 27t36 36.5t44.5 34.5t51.5 26.5q21 7 37.5 8.5t27 -2t17.5 -9.5t10.5 -15t5 -16.5t1.5 -16.5q-1 -4 -3 -11.5t-2 -10t0.5 -6.5t3 -4.5t7.5 -0.5t13 3q4 1 10 3.5t23 7.5t31.5 7t31.5 -1t27 -13q13 -13 14 -30
t-4 -28l-5 -10l-3 -8q0 -7 13 -10h2q5 -1 11.5 -3.5t14.5 -6.5t15.5 -10t14 -14t10.5 -18t6 -22t-1 -27t-11 -31zM638 426q-7 0 -12 5t-5 12q0 3 1.5 6.5t3.5 5.5t5.5 3.5t6.5 1.5q5 1 12 1.5t24.5 -2.5t30.5 -11t22 -29.5t5 -53.5v-2q-2 -14 -17 -14q-5 0 -8.5 2t-6 6
t-2.5 9q9 46 -21 59q-15 6 -39 1zM818 334q-2 -13 -7.5 -17t-16.5 -4q-3 0 -6.5 1t-6 2t-5 3t-4 4.5t-2.5 5.5t-1 6.5t0.5 7t1.5 6.5t1.5 5.5t1.5 3.5v1q3 8 4.5 14.5t-0.5 27t-11 41.5q-17 29 -46.5 44t-49.5 17.5t-27 -0.5l-23 -5q-10 0 -17.5 7t-7.5 17q0 19 18 24l1 1h1
l1 1q49 9 86 1q17 -4 34 -12t34 -20.5t29.5 -30.5t20.5 -39.5t7.5 -50.5t-10.5 -62z" />
  </font>
</defs>
</svg>
